{
  "accessors": [
    {
      "bufferView": 2,
      "componentType": 5126,
      "count": 8090,
      "max": [
        0.4964638352394104,
        0.4945010542869568,
        0.2354974001646042
      ],
      "min": [
        -0.4953968822956085,
        -0.4992895722389221,
        -0.2354974001646042
      ],
      "type": "VEC3"
    },
    {
      "bufferView": 2,
      "byteOffset": 97080,
      "componentType": 5126,
      "count": 8090,
      "max": [
        1.0,
        0.9998806118965149,
        0.9999964833259583
      ],
      "min": [
        -0.9995050430297852,
        -0.9998713135719299,
        -0.9999964833259583
      ],
      "type": "VEC3"
    },
    {
      "bufferView": 1,
      "componentType": 5126,
      "count": 8090,
      "max": [
        0.8536970615386963,
        0.9999154210090637
      ],
      "min": [
        4.017353057861328e-05,
        9.706616401672363e-05
      ],
      "type": "VEC2"
    },
    {
      "bufferView": 1,
      "byteOffset": 64720,
      "componentType": 5126,
      "count": 8090,
      "max": [
        0.8536970615386963,
        0.9999154210090637
      ],
      "min": [
        4.017353057861328e-05,
        9.706616401672363e-05
      ],
      "type": "VEC2"
    },
    {
      "bufferView": 1,
      "byteOffset": 129440,
      "componentType": 5126,
      "count": 8090,
      "max": [
        0.8536970615386963,
        0.9999154210090637
      ],
      "min": [
        4.017353057861328e-05,
        9.706616401672363e-05
      ],
      "type": "VEC2"
    },
    {
      "bufferView": 0,
      "componentType": 5125,
      "count": 46392,
      "type": "SCALAR"
    }
  ],
  "asset": {
    "extras": {
      "author": "mr_izal (https://sketchfab.com/mr_izal)",
      "license": "CC-BY-4.0 (http://creativecommons.org/licenses/by/4.0/)",
      "source": "https://sketchfab.com/3d-models/human-digestive-organ-0e45d8761e384ca8953c1b6b4294d443",
      "title": "Human Digestive Organ"
    },
    "generator": "Sketchfab-13.40.0",
    "version": "2.0"
  },
  "bufferViews": [
    {
      "buffer": 0,
      "byteLength": 185568,
      "name": "floatBufferViews",
      "target": 34963
    },
    {
      "buffer": 0,
      "byteLength": 194160,
      "byteOffset": 185568,
      "byteStride": 8,
      "name": "floatBufferViews",
      "target": 34962
    },
    {
      "buffer": 0,
      "byteLength": 194160,
      "byteOffset": 379728,
      "byteStride": 12,
      "name": "floatBufferViews",
      "target": 34962
    }
  ],
  "buffers": [
    {
      "byteLength": 573888,
      "uri": "scene.bin"
    }
  ],
  "extensionsRequired": [
    "KHR_materials_pbrSpecularGlossiness"
  ],
  "extensionsUsed": [
    "KHR_materials_pbrSpecularGlossiness"
  ],
  "images": [
    {
      "uri": "textures/material_diffuse.png"
    },
    {
      "uri": "textures/material_specularGlossiness.png"
    }
  ],
  "materials": [
    {
      "doubleSided": true,
      "extensions": {
        "KHR_materials_pbrSpecularGlossiness": {
          "diffuseFactor": [
            1.0,
            1.0,
            1.0,
            1.0
          ],
          "diffuseTexture": {
            "index": 0
          },
          "glossinessFactor": 1.0,
          "specularFactor": [
            1.0,
            1.0,
            1.0
          ],
          "specularGlossinessTexture": {
            "index": 1,
            "texCoord": 1
          }
        }
      },
      "name": "material"
    }
  ],
  "meshes": [
    {
      "name": "Object_0",
      "primitives": [
        {
          "attributes": {
            "NORMAL": 1,
            "POSITION": 0,
            "TEXCOORD_0": 2,
            "TEXCOORD_1": 3,
            "TEXCOORD_2": 4
          },
          "indices": 5,
          "material": 0,
          "mode": 4
        }
      ]
    }
  ],
  "nodes": [
    {
      "children": [
        1
      ],
      "matrix": [
        1.9076642990112305,
        0.0,
        0.0,
        0.0,
        0.0,
        4.2358656560353546e-16,
        -1.9076642990112305,
        0.0,
        0.0,
        1.9076642990112305,
        4.2358656560353546e-16,
        0.0,
        0.0,
        0.0,
        0.0,
        1.0
      ],
      "name": "Sketchfab_model"
    },
    {
      "children": [
        2
      ],
      "name": "root"
    },
    {
      "children": [
        3
      ],
      "matrix": [
        1.0,
        0.0,
        0.0,
        0.0,
        0.0,
        2.220446049250313e-16,
        1.0,
        0.0,
        0.0,
        -1.0,
        2.220446049250313e-16,
        0.0,
        0.0,
        0.0,
        0.0,
        1.0
      ],
      "name": "GLTF_SceneRootNode"
    },
    {
      "children": [
        4
      ],
      "name": "root_1"
    },
    {
      "children": [
        5
      ],
      "matrix": [
        0.4085199236869812,
        -4.798408796612414e-19,
        -3.0437109797176053e-09,
        0.0,
        -5.737657627788195e-18,
        0.7071759700775146,
        -8.815815344110955e-10,
        0.0,
        4.056453878973761e-09,
        6.787211202634942e-10,
        0.5444479584693909,
        0.0,
        -0.010252416133880615,
        0.004042693413794041,
        0.20554102957248688,
        1.0
      ],
      "name": "_0"
    },
    {
      "mesh": 0,
      "name": "Object_5"
    }
  ],
  "samplers": [
    {
      "magFilter": 9729,
      "minFilter": 9987,
      "wrapS": 10497,
      "wrapT": 10497
    }
  ],
  "scene": 0,
  "scenes": [
    {
      "name": "Sketchfab_Scene",
      "nodes": [
        0
      ]
    }
  ],
  "textures": [
    {
      "sampler": 0,
      "source": 0
    },
    {
      "sampler": 0,
      "source": 1
    }
  ]
}
