{
  "accessors": [
    {
      "bufferView": 2,
      "componentType": 5126,
      "count": 19756,
      "max": [
        0.4998696744441986,
        0.49991559982299805,
        0.2653079926967621
      ],
      "min": [
        -0.4991757571697235,
        -0.5,
        -0.2653079926967621
      ],
      "type": "VEC3"
    },
    {
      "bufferView": 2,
      "byteOffset": 237072,
      "componentType": 5126,
      "count": 19756,
      "max": [
        0.9996330738067627,
        0.999294638633728,
        0.9999973177909851
      ],
      "min": [
        -1.0,
        -1.0,
        -0.9999973177909851
      ],
      "type": "VEC3"
    },
    {
      "bufferView": 1,
      "componentType": 5126,
      "count": 19756,
      "max": [
        0.976463258266449,
        0.9997445344924927
      ],
      "min": [
        0.000134345144033432,
        0.00017455220222473145
      ],
      "type": "VEC2"
    },
    {
      "bufferView": 1,
      "byteOffset": 158048,
      "componentType": 5126,
      "count": 19756,
      "max": [
        0.976463258266449,
        0.9997445344924927
      ],
      "min": [
        0.000134345144033432,
        0.00017455220222473145
      ],
      "type": "VEC2"
    },
    {
      "bufferView": 1,
      "byteOffset": 316096,
      "componentType": 5126,
      "count": 19756,
      "max": [
        0.976463258266449,
        0.9997445344924927
      ],
      "min": [
        0.000134345144033432,
        0.00017455220222473145
      ],
      "type": "VEC2"
    },
    {
      "bufferView": 0,
      "componentType": 5125,
      "count": 113958,
      "type": "SCALAR"
    }
  ],
  "asset": {
    "extras": {
      "author": "siskahidayati (https://sketchfab.com/siskahidayati)",
      "license": "CC-BY-4.0 (http://creativecommons.org/licenses/by/4.0/)",
      "source": "https://sketchfab.com/3d-models/3d-ginjal-concept-2d658e180d1748cba3c2b0a4d930ca82",
      "title": "3D Ginjal Concept"
    },
    "generator": "Sketchfab-12.65.0",
    "version": "2.0"
  },
  "bufferViews": [
    {
      "buffer": 0,
      "byteLength": 455832,
      "name": "floatBufferViews",
      "target": 34963
    },
    {
      "buffer": 0,
      "byteLength": 474144,
      "byteOffset": 455832,
      "byteStride": 8,
      "name": "floatBufferViews",
      "target": 34962
    },
    {
      "buffer": 0,
      "byteLength": 474144,
      "byteOffset": 929976,
      "byteStride": 12,
      "name": "floatBufferViews",
      "target": 34962
    }
  ],
  "buffers": [
    {
      "byteLength": 1404120,
      "uri": "scene.bin"
    }
  ],
  "extensionsRequired": [
    "KHR_materials_pbrSpecularGlossiness"
  ],
  "extensionsUsed": [
    "KHR_materials_pbrSpecularGlossiness"
  ],
  "images": [
    {
      "uri": "textures/material_diffuse.png"
    },
    {
      "uri": "textures/material_specularGlossiness.png"
    }
  ],
  "materials": [
    {
      "doubleSided": true,
      "extensions": {
        "KHR_materials_pbrSpecularGlossiness": {
          "diffuseFactor": [
            1.0,
            1.0,
            1.0,
            1.0
          ],
          "diffuseTexture": {
            "index": 0
          },
          "glossinessFactor": 1.0,
          "specularFactor": [
            1.0,
            1.0,
            1.0
          ],
          "specularGlossinessTexture": {
            "index": 1
          }
        }
      },
      "name": "material"
    }
  ],
  "meshes": [
    {
      "name": "Object_0",
      "primitives": [
        {
          "attributes": {
            "NORMAL": 1,
            "POSITION": 0,
            "TEXCOORD_0": 2,
            "TEXCOORD_1": 3,
            "TEXCOORD_2": 4
          },
          "indices": 5,
          "material": 0,
          "mode": 4
        }
      ]
    }
  ],
  "nodes": [
    {
      "children": [
        1
      ],
      "matrix": [
        1.0,
        0.0,
        0.0,
        0.0,
        0.0,
        2.220446049250313e-16,
        -1.0,
        0.0,
        0.0,
        1.0,
        2.220446049250313e-16,
        0.0,
        0.0,
        0.0,
        0.0,
        1.0
      ],
      "name": "Sketchfab_model"
    },
    {
      "children": [
        2
      ],
      "name": "root"
    },
    {
      "children": [
        3
      ],
      "matrix": [
        1.0,
        0.0,
        0.0,
        0.0,
        0.0,
        2.220446049250313e-16,
        1.0,
        0.0,
        0.0,
        -1.0,
        2.220446049250313e-16,
        0.0,
        0.0,
        0.0,
        0.0,
        1.0
      ],
      "name": "GLTF_SceneRootNode"
    },
    {
      "children": [
        4
      ],
      "name": "root_1"
    },
    {
      "children": [
        5
      ],
      "matrix": [
        -2.261110135539294,
        -0.3976836263449223,
        -0.24133289117796877,
        -0.0,
        -0.46541687299152723,
        2.6945921115187264,
        -0.07970879378748358,
        0.0,
        -0.14771556964011656,
        0.014708896998271537,
        1.3597470389994581,
        0.0,
        0.0023507471196353436,
        -0.5266844034194946,
        -0.07927119731903076,
        1.0
      ],
      "name": "_0"
    },
    {
      "mesh": 0,
      "name": "Object_5"
    }
  ],
  "samplers": [
    {
      "magFilter": 9729,
      "minFilter": 9987,
      "wrapS": 10497,
      "wrapT": 10497
    }
  ],
  "scene": 0,
  "scenes": [
    {
      "name": "Sketchfab_Scene",
      "nodes": [
        0
      ]
    }
  ],
  "textures": [
    {
      "sampler": 0,
      "source": 0
    },
    {
      "sampler": 0,
      "source": 1
    }
  ]
}
