{
  "accessors": [
    {
      "bufferView": 2,
      "componentType": 5126,
      "count": 65532,
      "max": [
        36.36713409423828,
        30.393817901611328,
        0.20000000298023224
      ],
      "min": [
        -10.325688362121582,
        -8.643869400024414,
        -6.938893903907228e-18
      ],
      "type": "VEC3"
    },
    {
      "bufferView": 2,
      "byteOffset": 786384,
      "componentType": 5126,
      "count": 65532,
      "max": [
        1.0,
        1.0,
        1.0
      ],
      "min": [
        -1.0,
        -1.0,
        -1.0
      ],
      "type": "VEC3"
    },
    {
      "bufferView": 1,
      "componentType": 5126,
      "count": 65532,
      "max": [
        1.0000050067901611,
        1.0
      ],
      "min": [
        -5.0067901611328125e-06,
        5.960464477539063e-08
      ],
      "type": "VEC2"
    },
    {
      "bufferView": 0,
      "componentType": 5125,
      "count": 178506,
      "type": "SCALAR"
    },
    {
      "bufferView": 2,
      "byteOffset": 1572768,
      "componentType": 5126,
      "count": 14656,
      "max": [
        34.14097595214844,
        17.915592193603516,
        0.18634480237960815
      ],
      "min": [
        -2.7262122631073,
        -1.4055168628692627,
        0.013655204325914383
      ],
      "type": "VEC3"
    },
    {
      "bufferView": 2,
      "byteOffset": 1748640,
      "componentType": 5126,
      "count": 14656,
      "max": [
        1.0,
        1.0,
        1.0
      ],
      "min": [
        -1.0,
        -1.0,
        -1.0
      ],
      "type": "VEC3"
    },
    {
      "bufferView": 1,
      "byteOffset": 524256,
      "componentType": 5126,
      "count": 14656,
      "max": [
        0.9317272901535034,
        0.6803543567657471
      ],
      "min": [
        0.06827819347381592,
        0.18541961908340454
      ],
      "type": "VEC2"
    },
    {
      "bufferView": 0,
      "byteOffset": 714024,
      "componentType": 5125,
      "count": 40038,
      "type": "SCALAR"
    },
    {
      "bufferView": 2,
      "byteOffset": 1924512,
      "componentType": 5126,
      "count": 362,
      "max": [
        3.109488010406494,
        20.0,
        3.1094882488250732
      ],
      "min": [
        -3.1094884872436523,
        -0.10966300964355469,
        -3.1094892024993896
      ],
      "type": "VEC3"
    },
    {
      "bufferView": 2,
      "byteOffset": 1928856,
      "componentType": 5126,
      "count": 362,
      "max": [
        1.0,
        1.0,
        1.0
      ],
      "min": [
        -1.0,
        -1.0,
        -1.0
      ],
      "type": "VEC3"
    },
    {
      "bufferView": 1,
      "byteOffset": 641504,
      "componentType": 5126,
      "count": 362,
      "max": [
        0.5061691403388977,
        1.0
      ],
      "min": [
        0.0,
        -9.316000814334592e-16
      ],
      "type": "VEC2"
    },
    {
      "bufferView": 0,
      "byteOffset": 874176,
      "componentType": 5125,
      "count": 2040,
      "type": "SCALAR"
    },
    {
      "bufferView": 2,
      "byteOffset": 1933200,
      "componentType": 5126,
      "count": 2923,
      "max": [
        36.67095947265625,
        29.130603790283203,
        3.924386978149414
      ],
      "min": [
        -3.0000007152557373,
        -4.136051654815674,
        -3.9243881702423096
      ],
      "type": "VEC3"
    },
    {
      "bufferView": 2,
      "byteOffset": 1968276,
      "componentType": 5126,
      "count": 2923,
      "max": [
        1.0,
        1.0,
        1.0
      ],
      "min": [
        -0.9999995827674866,
        -1.0,
        -1.0
      ],
      "type": "VEC3"
    },
    {
      "bufferView": 1,
      "byteOffset": 644400,
      "componentType": 5126,
      "count": 2923,
      "max": [
        1.0,
        0.9527318477630615
      ],
      "min": [
        0.0,
        4.377855906565961e-16
      ],
      "type": "VEC2"
    },
    {
      "bufferView": 0,
      "byteOffset": 882336,
      "componentType": 5125,
      "count": 12348,
      "type": "SCALAR"
    },
    {
      "bufferView": 2,
      "byteOffset": 2003352,
      "componentType": 5126,
      "count": 64,
      "max": [
        11.030234336853027,
        25.411121368408203,
        0.5213667154312134
      ],
      "min": [
        2.9999990463256836,
        -0.4434852600097656,
        -0.5213667154312134
      ],
      "type": "VEC3"
    },
    {
      "bufferView": 2,
      "byteOffset": 2004120,
      "componentType": 5126,
      "count": 64,
      "max": [
        0.4778004586696625,
        0.8731141090393066,
        0.9999943375587463
      ],
      "min": [
        -0.7575541138648987,
        -0.9589545726776123,
        -0.9999943375587463
      ],
      "type": "VEC3"
    },
    {
      "bufferView": 1,
      "byteOffset": 667784,
      "componentType": 5126,
      "count": 64,
      "max": [
        1.0,
        0.8665226101875305
      ],
      "min": [
        0.0,
        1.1278648680318915e-16
      ],
      "type": "VEC2"
    },
    {
      "bufferView": 0,
      "byteOffset": 931728,
      "componentType": 5125,
      "count": 144,
      "type": "SCALAR"
    },
    {
      "bufferView": 2,
      "byteOffset": 2004888,
      "componentType": 5126,
      "count": 447,
      "max": [
        3.3936405181884766,
        22.29534339904785,
        3.3936409950256348
      ],
      "min": [
        -3.393641233444214,
        6.775735855102539,
        -3.3936421871185303
      ],
      "type": "VEC3"
    },
    {
      "bufferView": 2,
      "byteOffset": 2010252,
      "componentType": 5126,
      "count": 447,
      "max": [
        1.0,
        1.0,
        1.0
      ],
      "min": [
        -1.0,
        -1.0,
        -1.0
      ],
      "type": "VEC3"
    },
    {
      "bufferView": 1,
      "byteOffset": 668296,
      "componentType": 5126,
      "count": 447,
      "max": [
        0.96820467710495,
        1.0
      ],
      "min": [
        0.0,
        -1.3195926285274745e-16
      ],
      "type": "VEC2"
    },
    {
      "bufferView": 0,
      "byteOffset": 932304,
      "componentType": 5125,
      "count": 1980,
      "type": "SCALAR"
    }
  ],
  "asset": {
    "extras": {
      "author": "arloopa (https://sketchfab.com/arloopa)",
      "license": "CC-BY-4.0 (http://creativecommons.org/licenses/by/4.0/)",
      "source": "https://sketchfab.com/3d-models/components-of-blood-3ae309d331a049918b5788718ee58f35",
      "title": "Components of blood"
    },
    "generator": "Sketchfab-16.59.0",
    "version": "2.0"
  },
  "bufferViews": [
    {
      "buffer": 0,
      "byteLength": 940224,
      "name": "floatBufferViews",
      "target": 34963
    },
    {
      "buffer": 0,
      "byteLength": 671872,
      "byteOffset": 940224,
      "byteStride": 8,
      "name": "floatBufferViews",
      "target": 34962
    },
    {
      "buffer": 0,
      "byteLength": 2015616,
      "byteOffset": 1612096,
      "byteStride": 12,
      "name": "floatBufferViews",
      "target": 34962
    }
  ],
  "buffers": [
    {
      "byteLength": 3627712,
      "uri": "scene.bin"
    }
  ],
  "images": [
    {
      "uri": "textures/material_baseColor.png"
    },
    {
      "uri": "textures/material_metallicRoughness.png"
    },
    {
      "uri": "textures/material_emissive.png"
    },
    {
      "uri": "textures/material_3_baseColor.png"
    },
    {
      "uri": "textures/lambert1_baseColor.png"
    }
  ],
  "materials": [
    {
      "doubleSided": true,
      "name": "type",
      "pbrMetallicRoughness": {
        "baseColorFactor": [
          0.0,
          0.0,
          0.0,
          1.0
        ],
        "metallicFactor": 0.0,
        "roughnessFactor": 0.6
      }
    },
    {
      "alphaMode": "BLEND",
      "doubleSided": true,
      "name": "glass",
      "pbrMetallicRoughness": {
        "baseColorFactor": [
          1.0,
          1.0,
          1.0,
          0.09600029257232022
        ],
        "roughnessFactor": 0.0
      }
    },
    {
      "emissiveFactor": [
        1.0,
        1.0,
        1.0
      ],
      "emissiveTexture": {
        "index": 2
      },
      "name": "material",
      "occlusionTexture": {
        "index": 1
      },
      "pbrMetallicRoughness": {
        "baseColorTexture": {
          "index": 0
        },
        "metallicFactor": 0.0,
        "metallicRoughnessTexture": {
          "index": 1
        },
        "roughnessFactor": 0.3
      }
    },
    {
      "alphaMode": "BLEND",
      "doubleSided": true,
      "emissiveFactor": [
        0.3793793895238768,
        0.30149164879860274,
        0.16407319041529583
      ],
      "name": "material_3",
      "pbrMetallicRoughness": {
        "baseColorFactor": [
          1.0,
          1.0,
          1.0,
          0.2
        ],
        "baseColorTexture": {
          "index": 3
        },
        "metallicFactor": 0.0,
        "roughnessFactor": 0.6
      }
    },
    {
      "doubleSided": true,
      "name": "lambert1",
      "pbrMetallicRoughness": {
        "baseColorTexture": {
          "index": 4
        },
        "metallicFactor": 0.0,
        "roughnessFactor": 0.18133388596993819
      }
    }
  ],
  "meshes": [
    {
      "name": "Type_type_0",
      "primitives": [
        {
          "attributes": {
            "NORMAL": 1,
            "POSITION": 0,
            "TEXCOORD_0": 2
          },
          "indices": 3,
          "material": 0,
          "mode": 4
        }
      ]
    },
    {
      "name": "Type_type_0",
      "primitives": [
        {
          "attributes": {
            "NORMAL": 5,
            "POSITION": 4,
            "TEXCOORD_0": 6
          },
          "indices": 7,
          "material": 0,
          "mode": 4
        }
      ]
    },
    {
      "name": "Glas_glass_0",
      "primitives": [
        {
          "attributes": {
            "NORMAL": 9,
            "POSITION": 8,
            "TEXCOORD_0": 10
          },
          "indices": 11,
          "material": 1,
          "mode": 4
        }
      ]
    },
    {
      "name": "revers_rev_0",
      "primitives": [
        {
          "attributes": {
            "NORMAL": 13,
            "POSITION": 12,
            "TEXCOORD_0": 14
          },
          "indices": 15,
          "material": 2,
          "mode": 4
        }
      ]
    },
    {
      "name": "op_opa_0",
      "primitives": [
        {
          "attributes": {
            "NORMAL": 17,
            "POSITION": 16,
            "TEXCOORD_0": 18
          },
          "indices": 19,
          "material": 3,
          "mode": 4
        }
      ]
    },
    {
      "name": "polySurface3_lambert1_0",
      "primitives": [
        {
          "attributes": {
            "NORMAL": 21,
            "POSITION": 20,
            "TEXCOORD_0": 22
          },
          "indices": 23,
          "material": 4,
          "mode": 4
        }
      ]
    }
  ],
  "nodes": [
    {
      "children": [
        1
      ],
      "matrix": [
        1.0,
        0.0,
        0.0,
        0.0,
        0.0,
        2.220446049250313e-16,
        -1.0,
        0.0,
        0.0,
        1.0,
        2.220446049250313e-16,
        0.0,
        0.0,
        0.0,
        0.0,
        1.0
      ],
      "name": "Sketchfab_model"
    },
    {
      "children": [
        2
      ],
      "matrix": [
        0.009999999776482582,
        0.0,
        0.0,
        0.0,
        0.0,
        0.0,
        0.009999999776482582,
        0.0,
        0.0,
        -0.009999999776482582,
        0.0,
        0.0,
        0.0,
        0.0,
        0.0,
        1.0
      ],
      "name": "f58a2e22aafe4e699348667e90a960a6.fbx"
    },
    {
      "children": [
        3
      ],
      "name": "RootNode"
    },
    {
      "children": [
        4,
        7,
        9,
        11,
        13
      ],
      "name": "group1"
    },
    {
      "children": [
        5,
        6
      ],
      "name": "Type"
    },
    {
      "mesh": 0,
      "name": "Type_type_0"
    },
    {
      "mesh": 1,
      "name": "Type_type_0"
    },
    {
      "children": [
        8
      ],
      "name": "Glas"
    },
    {
      "mesh": 2,
      "name": "Glas_glass_0"
    },
    {
      "children": [
        10
      ],
      "name": "revers"
    },
    {
      "mesh": 3,
      "name": "revers_rev_0"
    },
    {
      "children": [
        12
      ],
      "name": "op"
    },
    {
      "mesh": 4,
      "name": "op_opa_0"
    },
    {
      "children": [
        14
      ],
      "name": "polySurface3"
    },
    {
      "mesh": 5,
      "name": "polySurface3_lambert1_0"
    }
  ],
  "samplers": [
    {
      "magFilter": 9729,
      "minFilter": 9987,
      "wrapS": 10497,
      "wrapT": 10497
    }
  ],
  "scene": 0,
  "scenes": [
    {
      "name": "Sketchfab_Scene",
      "nodes": [
        0
      ]
    }
  ],
  "textures": [
    {
      "sampler": 0,
      "source": 0
    },
    {
      "sampler": 0,
      "source": 1
    },
    {
      "sampler": 0,
      "source": 2
    },
    {
      "sampler": 0,
      "source": 3
    },
    {
      "sampler": 0,
      "source": 4
    }
  ]
}
