{
  "accessors": [
    {
      "bufferView": 2,
      "componentType": 5126,
      "count": 2539,
      "max": [
        9.301773071289063,
        46.94020080566406,
        5.889301300048828
      ],
      "min": [
        -21.66440773010254,
        -0.012311935424804688,
        -17.32166862487793
      ],
      "type": "VEC3"
    },
    {
      "bufferView": 2,
      "byteOffset": 30468,
      "componentType": 5126,
      "count": 2539,
      "max": [
        0.9988808631896973,
        0.9998108148574829,
        0.9999576210975647
      ],
      "min": [
        -0.9995828866958618,
        -0.999839723110199,
        -0.9997216463088989
      ],
      "type": "VEC3"
    },
    {
      "bufferView": 3,
      "componentType": 5126,
      "count": 2539,
      "max": [
        0.9996273517608643,
        0.9997879862785339,
        0.999737024307251,
        1.0
      ],
      "min": [
        -0.9980844855308533,
        -0.9995265007019043,
        -0.9998641014099121,
        -1.0
      ],
      "type": "VEC4"
    },
    {
      "bufferView": 1,
      "componentType": 5126,
      "count": 2539,
      "max": [
        0.9922075271606445,
        1.0
      ],
      "min": [
        0.0,
        -3.386878180255265e-16
      ],
      "type": "VEC2"
    },
    {
      "bufferView": 0,
      "componentType": 5125,
      "count": 13482,
      "type": "SCALAR"
    },
    {
      "bufferView": 2,
      "byteOffset": 60936,
      "componentType": 5126,
      "count": 5424,
      "max": [
        9.681014060974121,
        44.454689025878906,
        6.406252384185791
      ],
      "min": [
        -20.402570724487305,
        -5.364353656768799,
        -10.033607482910156
      ],
      "type": "VEC3"
    },
    {
      "bufferView": 2,
      "byteOffset": 126024,
      "componentType": 5126,
      "count": 5424,
      "max": [
        0.9999394416809082,
        0.999953031539917,
        0.9999948143959045
      ],
      "min": [
        -0.999965488910675,
        -1.0,
        -0.9997796416282654
      ],
      "type": "VEC3"
    },
    {
      "bufferView": 3,
      "byteOffset": 40624,
      "componentType": 5126,
      "count": 5424,
      "max": [
        0.9996784925460815,
        0.9999977350234985,
        0.9999838471412659,
        1.0
      ],
      "min": [
        -0.9998143315315247,
        -0.9999911189079285,
        -0.9998981356620789,
        -1.0
      ],
      "type": "VEC4"
    },
    {
      "bufferView": 1,
      "byteOffset": 20312,
      "componentType": 5126,
      "count": 5424,
      "max": [
        0.9970294237136841,
        1.0
      ],
      "min": [
        0.0,
        -6.002414277422874e-17
      ],
      "type": "VEC2"
    },
    {
      "bufferView": 0,
      "byteOffset": 53928,
      "componentType": 5125,
      "count": 28800,
      "type": "SCALAR"
    }
  ],
  "asset": {
    "extras": {
      "author": "arloopa (https://sketchfab.com/arloopa)",
      "license": "CC-BY-4.0 (http://creativecommons.org/licenses/by/4.0/)",
      "source": "https://sketchfab.com/3d-models/shoulder-joint-d3191cc41b9c4c94b393e1c26c4f0b02",
      "title": "Shoulder joint"
    },
    "generator": "Sketchfab-16.59.0",
    "version": "2.0"
  },
  "bufferViews": [
    {
      "buffer": 0,
      "byteLength": 169128,
      "name": "floatBufferViews",
      "target": 34963
    },
    {
      "buffer": 0,
      "byteLength": 63704,
      "byteOffset": 169128,
      "byteStride": 8,
      "name": "floatBufferViews",
      "target": 34962
    },
    {
      "buffer": 0,
      "byteLength": 191112,
      "byteOffset": 232832,
      "byteStride": 12,
      "name": "floatBufferViews",
      "target": 34962
    },
    {
      "buffer": 0,
      "byteLength": 127408,
      "byteOffset": 423944,
      "byteStride": 16,
      "name": "floatBufferViews",
      "target": 34962
    }
  ],
  "buffers": [
    {
      "byteLength": 551352,
      "uri": "scene.bin"
    }
  ],
  "images": [
    {
      "uri": "textures/bone_baseColor.png"
    },
    {
      "uri": "textures/bone_metallicRoughness.png"
    },
    {
      "uri": "textures/bone_normal.png"
    },
    {
      "uri": "textures/muscules_baseColor.png"
    },
    {
      "uri": "textures/muscules_metallicRoughness.png"
    },
    {
      "uri": "textures/muscules_normal.png"
    }
  ],
  "materials": [
    {
      "doubleSided": true,
      "name": "bone",
      "normalTexture": {
        "index": 2
      },
      "occlusionTexture": {
        "index": 1
      },
      "pbrMetallicRoughness": {
        "baseColorTexture": {
          "index": 0
        },
        "metallicRoughnessTexture": {
          "index": 1
        }
      }
    },
    {
      "doubleSided": true,
      "name": "muscules",
      "normalTexture": {
        "index": 5
      },
      "occlusionTexture": {
        "index": 4
      },
      "pbrMetallicRoughness": {
        "baseColorTexture": {
          "index": 3
        },
        "metallicRoughnessTexture": {
          "index": 4
        }
      }
    }
  ],
  "meshes": [
    {
      "name": "pCube10_bone_0",
      "primitives": [
        {
          "attributes": {
            "NORMAL": 1,
            "POSITION": 0,
            "TANGENT": 2,
            "TEXCOORD_0": 3
          },
          "indices": 4,
          "material": 0,
          "mode": 4
        }
      ]
    },
    {
      "name": "polySurface1_muscules_0",
      "primitives": [
        {
          "attributes": {
            "NORMAL": 6,
            "POSITION": 5,
            "TANGENT": 7,
            "TEXCOORD_0": 8
          },
          "indices": 9,
          "material": 1,
          "mode": 4
        }
      ]
    }
  ],
  "nodes": [
    {
      "children": [
        1
      ],
      "matrix": [
        1.0,
        0.0,
        0.0,
        0.0,
        0.0,
        2.220446049250313e-16,
        -1.0,
        0.0,
        0.0,
        1.0,
        2.220446049250313e-16,
        0.0,
        0.0,
        0.0,
        0.0,
        1.0
      ],
      "name": "Sketchfab_model"
    },
    {
      "children": [
        2
      ],
      "matrix": [
        0.009999999776482582,
        0.0,
        0.0,
        0.0,
        0.0,
        0.0,
        0.009999999776482582,
        0.0,
        0.0,
        -0.009999999776482582,
        0.0,
        0.0,
        0.0,
        0.0,
        0.0,
        1.0
      ],
      "name": "5a7a92bfff244b37a67bd08696e0c3ef.fbx"
    },
    {
      "children": [
        3
      ],
      "name": "RootNode"
    },
    {
      "children": [
        4,
        6
      ],
      "name": "group1"
    },
    {
      "children": [
        5
      ],
      "name": "pCube10"
    },
    {
      "mesh": 0,
      "name": "pCube10_bone_0"
    },
    {
      "children": [
        7
      ],
      "name": "polySurface1"
    },
    {
      "mesh": 1,
      "name": "polySurface1_muscules_0"
    }
  ],
  "samplers": [
    {
      "magFilter": 9729,
      "minFilter": 9987,
      "wrapS": 10497,
      "wrapT": 10497
    }
  ],
  "scene": 0,
  "scenes": [
    {
      "name": "Sketchfab_Scene",
      "nodes": [
        0
      ]
    }
  ],
  "textures": [
    {
      "sampler": 0,
      "source": 0
    },
    {
      "sampler": 0,
      "source": 1
    },
    {
      "sampler": 0,
      "source": 2
    },
    {
      "sampler": 0,
      "source": 3
    },
    {
      "sampler": 0,
      "source": 4
    },
    {
      "sampler": 0,
      "source": 5
    }
  ]
}
