{
  "accessors": [
    {
      "bufferView": 2,
      "componentType": 5126,
      "count": 49920,
      "max": [
        -2.004539728164673,
        4.065425872802734,
        1.0371899604797363
      ],
      "min": [
        -4.811906337738037,
        -0.6031513214111328,
        -1.03718900680542
      ],
      "type": "VEC3"
    },
    {
      "bufferView": 2,
      "byteOffset": 599040,
      "componentType": 5126,
      "count": 49920,
      "max": [
        0.998888373374939,
        0.999872088432312,
        0.9993520379066467
      ],
      "min": [
        -0.9991585612297058,
        -0.9976248741149902,
        -0.9993520379066467
      ],
      "type": "VEC3"
    },
    {
      "bufferView": 1,
      "componentType": 5126,
      "count": 49920,
      "max": [
        0.8549758791923523,
        0.999015212059021
      ],
      "min": [
        0.0016911341808736324,
        0.0008577427361160517
      ],
      "type": "VEC2"
    },
    {
      "bufferView": 0,
      "componentType": 5125,
      "count": 74880,
      "type": "SCALAR"
    },
    {
      "bufferView": 2,
      "byteOffset": 1198080,
      "componentType": 5126,
      "count": 49920,
      "max": [
        -1.8275104761123657,
        4.065425872802734,
        1.0371899604797363
      ],
      "min": [
        -5.032114505767822,
        -0.8188372850418091,
        -1.03718900680542
      ],
      "type": "VEC3"
    },
    {
      "bufferView": 2,
      "byteOffset": 1797120,
      "componentType": 5126,
      "count": 49920,
      "max": [
        0.9985876679420471,
        0.9998756051063538,
        0.9994493126869202
      ],
      "min": [
        -0.9977863430976868,
        -0.9986570477485657,
        -0.9994491338729858
      ],
      "type": "VEC3"
    },
    {
      "bufferView": 1,
      "byteOffset": 399360,
      "componentType": 5126,
      "count": 49920,
      "max": [
        0.8266887664794922,
        0.999544084072113
      ],
      "min": [
        0.0033285384997725487,
        0.0025503092911094427
      ],
      "type": "VEC2"
    },
    {
      "bufferView": 0,
      "byteOffset": 299520,
      "componentType": 5125,
      "count": 74880,
      "type": "SCALAR"
    },
    {
      "bufferView": 2,
      "byteOffset": 2396160,
      "componentType": 5126,
      "count": 65532,
      "max": [
        23.764204025268555,
        6.156156063079834,
        1.2040144205093384
      ],
      "min": [
        -11.064413070678711,
        -7.908498287200928,
        -2.4559178352355957
      ],
      "type": "VEC3"
    },
    {
      "bufferView": 2,
      "byteOffset": 3182544,
      "componentType": 5126,
      "count": 65532,
      "max": [
        0.9992562532424927,
        0.9999687075614929,
        0.9998775124549866
      ],
      "min": [
        -0.9986743330955505,
        -0.9995419979095459,
        -0.9998775124549866
      ],
      "type": "VEC3"
    },
    {
      "bufferView": 1,
      "byteOffset": 798720,
      "componentType": 5126,
      "count": 65532,
      "max": [
        0.8801151514053345,
        0.9997961521148682
      ],
      "min": [
        0.00020395977480802685,
        0.00020395977480802685
      ],
      "type": "VEC2"
    },
    {
      "bufferView": 0,
      "byteOffset": 599040,
      "componentType": 5125,
      "count": 98298,
      "type": "SCALAR"
    },
    {
      "bufferView": 2,
      "byteOffset": 3968928,
      "componentType": 5126,
      "count": 23556,
      "max": [
        3.0238888263702393,
        6.156156063079834,
        1.1975637674331665
      ],
      "min": [
        -4.881235599517822,
        -3.8096439838409424,
        -1.1975655555725098
      ],
      "type": "VEC3"
    },
    {
      "bufferView": 2,
      "byteOffset": 4251600,
      "componentType": 5126,
      "count": 23556,
      "max": [
        0.9992563724517822,
        0.9994791746139526,
        0.9995798468589783
      ],
      "min": [
        -0.9986905455589294,
        -0.999339759349823,
        -0.999579906463623
      ],
      "type": "VEC3"
    },
    {
      "bufferView": 1,
      "byteOffset": 1322976,
      "componentType": 5126,
      "count": 23556,
      "max": [
        0.8581709265708923,
        0.87538081407547
      ],
      "min": [
        0.19493679702281952,
        0.24233491718769073
      ],
      "type": "VEC2"
    },
    {
      "bufferView": 0,
      "byteOffset": 992232,
      "componentType": 5125,
      "count": 35334,
      "type": "SCALAR"
    },
    {
      "bufferView": 2,
      "byteOffset": 4534272,
      "componentType": 5126,
      "count": 65532,
      "max": [
        18.796630859375,
        6.927829742431641,
        4.290404319763184
      ],
      "min": [
        -15.95820140838623,
        -11.724854469299316,
        -2.512629270553589
      ],
      "type": "VEC3"
    },
    {
      "bufferView": 2,
      "byteOffset": 5320656,
      "componentType": 5126,
      "count": 65532,
      "max": [
        0.9988099932670593,
        0.9998229146003723,
        0.9999777674674988
      ],
      "min": [
        -0.998690664768219,
        -0.9994716644287109,
        -0.9999990463256836
      ],
      "type": "VEC3"
    },
    {
      "bufferView": 1,
      "byteOffset": 1511424,
      "componentType": 5126,
      "count": 65532,
      "max": [
        1.0000001192092896,
        1.0000001192092896
      ],
      "min": [
        0.0,
        0.5
      ],
      "type": "VEC2"
    },
    {
      "bufferView": 0,
      "byteOffset": 1133568,
      "componentType": 5125,
      "count": 98298,
      "type": "SCALAR"
    },
    {
      "bufferView": 2,
      "byteOffset": 6107040,
      "componentType": 5126,
      "count": 13316,
      "max": [
        -4.632752418518066,
        0.49505195021629333,
        0.9986572265625
      ],
      "min": [
        -9.62966251373291,
        -4.385179042816162,
        -1.6700596809387207
      ],
      "type": "VEC3"
    },
    {
      "bufferView": 2,
      "byteOffset": 6266832,
      "componentType": 5126,
      "count": 13316,
      "max": [
        0.9830126166343689,
        0.9999021887779236,
        0.999971866607666
      ],
      "min": [
        -0.9421218633651733,
        -0.9992709755897522,
        -0.9999793171882629
      ],
      "type": "VEC3"
    },
    {
      "bufferView": 1,
      "byteOffset": 2035680,
      "componentType": 5126,
      "count": 13316,
      "max": [
        1.0000001192092896,
        1.0000001192092896
      ],
      "min": [
        0.0,
        0.6000000238418579
      ],
      "type": "VEC2"
    },
    {
      "bufferView": 0,
      "byteOffset": 1526760,
      "componentType": 5125,
      "count": 19974,
      "type": "SCALAR"
    },
    {
      "bufferView": 2,
      "byteOffset": 6426624,
      "componentType": 5126,
      "count": 38592,
      "max": [
        1.8242182731628418,
        1.2710322141647339,
        1.18489408493042
      ],
      "min": [
        -1.8242180347442627,
        -2.7463417053222656,
        -1.1857197284698486
      ],
      "type": "VEC3"
    },
    {
      "bufferView": 2,
      "byteOffset": 6889728,
      "componentType": 5126,
      "count": 38592,
      "max": [
        0.9980318546295166,
        0.999347984790802,
        0.9996150135993958
      ],
      "min": [
        -0.9980317950248718,
        -0.920842707157135,
        -0.999570906162262
      ],
      "type": "VEC3"
    },
    {
      "bufferView": 1,
      "byteOffset": 2142208,
      "componentType": 5126,
      "count": 38592,
      "max": [
        1.000000238418579,
        1.0000001192092896
      ],
      "min": [
        9.934108646802997e-09,
        0.09999995678663254
      ],
      "type": "VEC2"
    },
    {
      "bufferView": 0,
      "byteOffset": 1606656,
      "componentType": 5125,
      "count": 57888,
      "type": "SCALAR"
    },
    {
      "bufferView": 2,
      "byteOffset": 7352832,
      "componentType": 5126,
      "count": 40960,
      "max": [
        48.51076126098633,
        27.898597717285156,
        2.4375171661376953
      ],
      "min": [
        -1.8763980865478516,
        -4.691407680511475,
        -0.9696947932243347
      ],
      "type": "VEC3"
    },
    {
      "bufferView": 2,
      "byteOffset": 7844352,
      "componentType": 5126,
      "count": 40960,
      "max": [
        0.9987308382987976,
        0.9834131598472595,
        0.999597430229187
      ],
      "min": [
        -0.9985664486885071,
        -0.9815850853919983,
        -0.999410092830658
      ],
      "type": "VEC3"
    },
    {
      "bufferView": 1,
      "byteOffset": 2450944,
      "componentType": 5126,
      "count": 40960,
      "max": [
        1.0000001192092896,
        1.0000001192092896
      ],
      "min": [
        0.0,
        0.5
      ],
      "type": "VEC2"
    },
    {
      "bufferView": 0,
      "byteOffset": 1838208,
      "componentType": 5125,
      "count": 61440,
      "type": "SCALAR"
    },
    {
      "bufferView": 2,
      "byteOffset": 8335872,
      "componentType": 5126,
      "count": 40960,
      "max": [
        51.14421844482422,
        17.043201446533203,
        0.9023685455322266
      ],
      "min": [
        -1.8763980865478516,
        -4.691407680511475,
        -3.233643054962158
      ],
      "type": "VEC3"
    },
    {
      "bufferView": 2,
      "byteOffset": 8827392,
      "componentType": 5126,
      "count": 40960,
      "max": [
        0.9986554384231567,
        0.998897910118103,
        0.9995594024658203
      ],
      "min": [
        -0.9988158345222473,
        -0.9988746643066406,
        -0.9989084005355835
      ],
      "type": "VEC3"
    },
    {
      "bufferView": 1,
      "byteOffset": 2778624,
      "componentType": 5126,
      "count": 40960,
      "max": [
        1.0000001192092896,
        1.0000001192092896
      ],
      "min": [
        0.0,
        0.5
      ],
      "type": "VEC2"
    },
    {
      "bufferView": 0,
      "byteOffset": 2083968,
      "componentType": 5125,
      "count": 61440,
      "type": "SCALAR"
    }
  ],
  "asset": {
    "extras": {
      "author": "Vikrama Raghuraman (https://sketchfab.com/vikrama1998)",
      "license": "CC-BY-4.0 (http://creativecommons.org/licenses/by/4.0/)",
      "source": "https://sketchfab.com/3d-models/excretory-system-d5d3b4e21c9040f8b004c2102913a5d2",
      "title": "Excretory System"
    },
    "generator": "Sketchfab-12.67.0",
    "version": "2.0"
  },
  "bufferViews": [
    {
      "buffer": 0,
      "byteLength": 2329728,
      "name": "floatBufferViews",
      "target": 34963
    },
    {
      "buffer": 0,
      "byteLength": 3106304,
      "byteOffset": 2329728,
      "byteStride": 8,
      "name": "floatBufferViews",
      "target": 34962
    },
    {
      "buffer": 0,
      "byteLength": 9318912,
      "byteOffset": 5436032,
      "byteStride": 12,
      "name": "floatBufferViews",
      "target": 34962
    }
  ],
  "buffers": [
    {
      "byteLength": 14754944,
      "uri": "scene.bin"
    }
  ],
  "images": [
    {
      "uri": "textures/Material.002_baseColor.png"
    },
    {
      "uri": "textures/Material.003_baseColor.png"
    },
    {
      "uri": "textures/Material.004_baseColor.jpeg"
    },
    {
      "uri": "textures/Material.006_baseColor.jpeg"
    }
  ],
  "materials": [
    {
      "doubleSided": true,
      "name": "Material.002",
      "pbrMetallicRoughness": {
        "baseColorTexture": {
          "index": 0
        },
        "metallicFactor": 0.0,
        "roughnessFactor": 0.5
      }
    },
    {
      "doubleSided": true,
      "name": "Material.001",
      "pbrMetallicRoughness": {
        "baseColorTexture": {
          "index": 0
        },
        "metallicFactor": 0.0,
        "roughnessFactor": 0.5
      }
    },
    {
      "doubleSided": true,
      "name": "Material.003",
      "pbrMetallicRoughness": {
        "baseColorTexture": {
          "index": 1
        },
        "metallicFactor": 0.0,
        "roughnessFactor": 0.5
      }
    },
    {
      "doubleSided": true,
      "name": "Material.004",
      "pbrMetallicRoughness": {
        "baseColorTexture": {
          "index": 2
        },
        "metallicFactor": 0.0,
        "roughnessFactor": 0.5
      }
    },
    {
      "doubleSided": true,
      "name": "Material.007",
      "pbrMetallicRoughness": {
        "baseColorFactor": [
          0.8,
          0.455308,
          0.130322,
          1.0
        ],
        "metallicFactor": 0.0,
        "roughnessFactor": 0.5
      }
    },
    {
      "doubleSided": true,
      "name": "Material.006",
      "pbrMetallicRoughness": {
        "baseColorTexture": {
          "index": 3
        },
        "metallicFactor": 0.0,
        "roughnessFactor": 0.5
      }
    },
    {
      "doubleSided": true,
      "name": "Material.005",
      "pbrMetallicRoughness": {
        "baseColorTexture": {
          "index": 3
        },
        "metallicFactor": 0.0,
        "roughnessFactor": 0.5
      }
    }
  ],
  "meshes": [
    {
      "name": "Object_0",
      "primitives": [
        {
          "attributes": {
            "NORMAL": 1,
            "POSITION": 0,
            "TEXCOORD_0": 2
          },
          "indices": 3,
          "material": 0,
          "mode": 4
        }
      ]
    },
    {
      "name": "Object_1",
      "primitives": [
        {
          "attributes": {
            "NORMAL": 5,
            "POSITION": 4,
            "TEXCOORD_0": 6
          },
          "indices": 7,
          "material": 1,
          "mode": 4
        }
      ]
    },
    {
      "name": "Object_2",
      "primitives": [
        {
          "attributes": {
            "NORMAL": 9,
            "POSITION": 8,
            "TEXCOORD_0": 10
          },
          "indices": 11,
          "material": 2,
          "mode": 4
        }
      ]
    },
    {
      "name": "Object_3",
      "primitives": [
        {
          "attributes": {
            "NORMAL": 13,
            "POSITION": 12,
            "TEXCOORD_0": 14
          },
          "indices": 15,
          "material": 2,
          "mode": 4
        }
      ]
    },
    {
      "name": "Object_4",
      "primitives": [
        {
          "attributes": {
            "NORMAL": 17,
            "POSITION": 16,
            "TEXCOORD_0": 18
          },
          "indices": 19,
          "material": 3,
          "mode": 4
        }
      ]
    },
    {
      "name": "Object_5",
      "primitives": [
        {
          "attributes": {
            "NORMAL": 21,
            "POSITION": 20,
            "TEXCOORD_0": 22
          },
          "indices": 23,
          "material": 3,
          "mode": 4
        }
      ]
    },
    {
      "name": "Object_6",
      "primitives": [
        {
          "attributes": {
            "NORMAL": 25,
            "POSITION": 24,
            "TEXCOORD_0": 26
          },
          "indices": 27,
          "material": 4,
          "mode": 4
        }
      ]
    },
    {
      "name": "Object_7",
      "primitives": [
        {
          "attributes": {
            "NORMAL": 29,
            "POSITION": 28,
            "TEXCOORD_0": 30
          },
          "indices": 31,
          "material": 5,
          "mode": 4
        }
      ]
    },
    {
      "name": "Object_8",
      "primitives": [
        {
          "attributes": {
            "NORMAL": 33,
            "POSITION": 32,
            "TEXCOORD_0": 34
          },
          "indices": 35,
          "material": 6,
          "mode": 4
        }
      ]
    }
  ],
  "nodes": [
    {
      "children": [
        1
      ],
      "matrix": [
        1.0,
        0.0,
        0.0,
        0.0,
        0.0,
        2.220446049250313e-16,
        -1.0,
        0.0,
        0.0,
        1.0,
        2.220446049250313e-16,
        0.0,
        0.0,
        0.0,
        0.0,
        1.0
      ],
      "name": "Sketchfab_model"
    },
    {
      "children": [
        2
      ],
      "name": "root"
    },
    {
      "children": [
        3,
        5,
        7,
        10,
        13,
        15,
        17
      ],
      "matrix": [
        1.0,
        0.0,
        0.0,
        0.0,
        0.0,
        2.220446049250313e-16,
        1.0,
        0.0,
        0.0,
        -1.0,
        2.220446049250313e-16,
        0.0,
        0.0,
        0.0,
        0.0,
        1.0
      ],
      "name": "GLTF_SceneRootNode"
    },
    {
      "children": [
        4
      ],
      "name": "Sphere_3"
    },
    {
      "mesh": 0,
      "name": "Object_4"
    },
    {
      "children": [
        6
      ],
      "matrix": [
        -0.9999999999999467,
        0.0,
        3.258413698858844e-07,
        0.0,
        0.0,
        1.0,
        0.0,
        0.0,
        -3.6100766306448766e-07,
        0.0,
        -1.1079245805739766,
        0.0,
        -0.38159799575805664,
        -0.7300139665603638,
        0.0,
        1.0
      ],
      "name": "Sphere.001_4"
    },
    {
      "mesh": 1,
      "name": "Object_6"
    },
    {
      "children": [
        8,
        9
      ],
      "matrix": [
        2.285675727744401e-08,
        -0.27115619182586576,
        -0.0,
        0.0,
        0.43014004826545565,
        3.62580939506089e-08,
        0.0,
        0.0,
        0.0,
        0.0,
        0.2711561918258667,
        0.0,
        0.17533135414123535,
        1.2054029703140259,
        0.0,
        1.0
      ],
      "name": "Cylinder.002_5"
    },
    {
      "mesh": 2,
      "name": "Object_8"
    },
    {
      "mesh": 3,
      "name": "Object_9"
    },
    {
      "children": [
        11,
        12
      ],
      "matrix": [
        2.285675727744401e-08,
        -0.27115619182586576,
        -0.0,
        0.0,
        0.3009390532970418,
        2.536726471262578e-08,
        0.0,
        0.0,
        0.0,
        -0.0,
        0.2711561918258667,
        0.0,
        0.5920066237449646,
        -0.14349472522735596,
        -0.2824917137622833,
        1.0
      ],
      "name": "Cylinder.003_6"
    },
    {
      "mesh": 4,
      "name": "Object_11"
    },
    {
      "mesh": 5,
      "name": "Object_12"
    },
    {
      "children": [
        14
      ],
      "matrix": [
        1.0,
        0.0,
        0.0,
        0.0,
        0.0,
        1.0,
        0.0,
        0.0,
        0.0,
        0.0,
        1.0,
        0.0,
        -0.3291572630405426,
        -8.887245178222656,
        0.0,
        1.0
      ],
      "name": "Sphere.002_8"
    },
    {
      "mesh": 6,
      "name": "Object_14"
    },
    {
      "children": [
        16
      ],
      "matrix": [
        -0.07779042334934876,
        -0.15739445087147913,
        -0.0,
        0.0,
        0.15739445087147913,
        -0.07779042334934876,
        0.0,
        0.0,
        0.0,
        0.0,
        0.17556867003440857,
        0.0,
        -2.3707265853881836,
        1.2954788208007813,
        0.0,
        1.0
      ],
      "name": "Cylinder_9"
    },
    {
      "mesh": 7,
      "name": "Object_16"
    },
    {
      "children": [
        18
      ],
      "matrix": [
        0.03130080889207149,
        -0.17275596224937254,
        2.738014983871335e-08,
        0.0,
        -0.17275596224937254,
        -0.031300808892066254,
        3.278681478954301e-08,
        0.0,
        -2.7380147514859148e-08,
        -3.278681200680523e-08,
        -0.17556867003440335,
        0.0,
        2.0822246074676514,
        0.7580536007881165,
        0.0,
        1.0
      ],
      "name": "Cylinder.001_10"
    },
    {
      "mesh": 8,
      "name": "Object_18"
    }
  ],
  "samplers": [
    {
      "magFilter": 9729,
      "minFilter": 9987,
      "wrapS": 10497,
      "wrapT": 10497
    }
  ],
  "scene": 0,
  "scenes": [
    {
      "name": "Sketchfab_Scene",
      "nodes": [
        0
      ]
    }
  ],
  "textures": [
    {
      "sampler": 0,
      "source": 0
    },
    {
      "sampler": 0,
      "source": 1
    },
    {
      "sampler": 0,
      "source": 2
    },
    {
      "sampler": 0,
      "source": 3
    }
  ]
}
