{
  "accessors": [
    {
      "bufferView": 2,
      "componentType": 5126,
      "count": 65531,
      "max": [
        2.4416022300720215,
        4.0690999031066895,
        6.831384658813477
      ],
      "min": [
        -13.805700302124023,
        -3.554896116256714,
        -5.771249771118164
      ],
      "type": "VEC3"
    },
    {
      "bufferView": 2,
      "byteOffset": 786372,
      "componentType": 5126,
      "count": 65531,
      "max": [
        0.999997615814209,
        0.9999905228614807,
        0.9999403357505798
      ],
      "min": [
        -0.999997615814209,
        -0.9999618530273438,
        -0.999997615814209
      ],
      "type": "VEC3"
    },
    {
      "bufferView": 1,
      "componentType": 5126,
      "count": 65531,
      "max": [
        0.9914600253105164,
        0.9919160008430481
      ],
      "min": [
        0.006157999858260155,
        0.006157999858260155
      ],
      "type": "VEC2"
    },
    {
      "bufferView": 0,
      "componentType": 5125,
      "count": 331944,
      "type": "SCALAR"
    },
    {
      "bufferView": 2,
      "byteOffset": 1572744,
      "componentType": 5126,
      "count": 65530,
      "max": [
        11.403083801269531,
        2.056711196899414,
        6.310074806213379
      ],
      "min": [
        -11.563021659851074,
        -3.4711339473724365,
        -7.535109996795654
      ],
      "type": "VEC3"
    },
    {
      "bufferView": 2,
      "byteOffset": 2359104,
      "componentType": 5126,
      "count": 65530,
      "max": [
        0.9999691247940063,
        0.9999905228614807,
        0.9999691247940063
      ],
      "min": [
        -0.999911904335022,
        -0.9999905228614807,
        -0.999997615814209
      ],
      "type": "VEC3"
    },
    {
      "bufferView": 1,
      "byteOffset": 524248,
      "componentType": 5126,
      "count": 65530,
      "max": [
        0.9935089945793152,
        0.9938449859619141
      ],
      "min": [
        0.006157999858260155,
        0.006157999858260155
      ],
      "type": "VEC2"
    },
    {
      "bufferView": 0,
      "byteOffset": 1327776,
      "componentType": 5125,
      "count": 305289,
      "type": "SCALAR"
    },
    {
      "bufferView": 2,
      "byteOffset": 3145464,
      "componentType": 5126,
      "count": 42293,
      "max": [
        11.403853416442871,
        2.4436464309692383,
        6.322789669036865
      ],
      "min": [
        -11.809985160827637,
        -3.473926067352295,
        -5.76993465423584
      ],
      "type": "VEC3"
    },
    {
      "bufferView": 2,
      "byteOffset": 3652980,
      "componentType": 5126,
      "count": 42293,
      "max": [
        0.9999785423278809,
        0.9999905228614807,
        0.9999785423278809
      ],
      "min": [
        -0.999997615814209,
        -0.9999905228614807,
        -0.9999785423278809
      ],
      "type": "VEC3"
    },
    {
      "bufferView": 1,
      "byteOffset": 1048488,
      "componentType": 5126,
      "count": 42293,
      "max": [
        0.9935089945793152,
        0.9923980236053467
      ],
      "min": [
        0.006157999858260155,
        0.006157999858260155
      ],
      "type": "VEC2"
    },
    {
      "bufferView": 0,
      "byteOffset": 2548932,
      "componentType": 5125,
      "count": 204165,
      "type": "SCALAR"
    }
  ],
  "asset": {
    "extras": {
      "author": "CAPTAAINRO (https://sketchfab.com/CAPTAAINRO)",
      "license": "CC-BY-4.0 (http://creativecommons.org/licenses/by/4.0/)",
      "source": "https://sketchfab.com/3d-models/pancreas-393c64c5d3644a5ea9a598354ce6e749",
      "title": "Pancreas"
    },
    "generator": "Sketchfab-15.55.0",
    "version": "2.0"
  },
  "bufferViews": [
    {
      "buffer": 0,
      "byteLength": 3365592,
      "name": "floatBufferViews",
      "target": 34963
    },
    {
      "buffer": 0,
      "byteLength": 1386832,
      "byteOffset": 3365592,
      "byteStride": 8,
      "name": "floatBufferViews",
      "target": 34962
    },
    {
      "buffer": 0,
      "byteLength": 4160496,
      "byteOffset": 4752424,
      "byteStride": 12,
      "name": "floatBufferViews",
      "target": 34962
    }
  ],
  "buffers": [
    {
      "byteLength": 8912920,
      "uri": "scene.bin"
    }
  ],
  "images": [
    {
      "uri": "textures/object_0_baseColor.jpeg"
    }
  ],
  "materials": [
    {
      "doubleSided": true,
      "name": "object_0",
      "pbrMetallicRoughness": {
        "baseColorTexture": {
          "index": 0
        },
        "metallicFactor": 0.0
      }
    },
    {
      "doubleSided": true,
      "name": "object_1",
      "pbrMetallicRoughness": {
        "baseColorTexture": {
          "index": 0
        },
        "metallicFactor": 0.0,
        "roughnessFactor": 0.6194820474503014
      }
    },
    {
      "doubleSided": true,
      "name": "object_2",
      "pbrMetallicRoughness": {
        "baseColorTexture": {
          "index": 0
        },
        "metallicFactor": 0.0,
        "roughnessFactor": 0.5424492084776076
      }
    }
  ],
  "meshes": [
    {
      "name": "Object_0",
      "primitives": [
        {
          "attributes": {
            "NORMAL": 1,
            "POSITION": 0,
            "TEXCOORD_0": 2
          },
          "indices": 3,
          "material": 0,
          "mode": 4
        }
      ]
    },
    {
      "name": "Object_1",
      "primitives": [
        {
          "attributes": {
            "NORMAL": 5,
            "POSITION": 4,
            "TEXCOORD_0": 6
          },
          "indices": 7,
          "material": 1,
          "mode": 4
        }
      ]
    },
    {
      "name": "Object_2",
      "primitives": [
        {
          "attributes": {
            "NORMAL": 9,
            "POSITION": 8,
            "TEXCOORD_0": 10
          },
          "indices": 11,
          "material": 2,
          "mode": 4
        }
      ]
    }
  ],
  "nodes": [
    {
      "children": [
        1
      ],
      "matrix": [
        1.0,
        0.0,
        0.0,
        0.0,
        0.0,
        2.220446049250313e-16,
        -1.0,
        0.0,
        0.0,
        1.0,
        2.220446049250313e-16,
        0.0,
        0.0,
        0.0,
        0.0,
        1.0
      ],
      "name": "Sketchfab_model"
    },
    {
      "children": [
        2,
        3,
        4
      ],
      "name": "model.obj.cleaner.materialmerger.gles"
    },
    {
      "mesh": 0,
      "name": "Object_2"
    },
    {
      "mesh": 1,
      "name": "Object_3"
    },
    {
      "mesh": 2,
      "name": "Object_4"
    }
  ],
  "samplers": [
    {
      "magFilter": 9729,
      "minFilter": 9987,
      "wrapS": 10497,
      "wrapT": 10497
    }
  ],
  "scene": 0,
  "scenes": [
    {
      "name": "Sketchfab_Scene",
      "nodes": [
        0
      ]
    }
  ],
  "textures": [
    {
      "sampler": 0,
      "source": 0
    }
  ]
}
