{
  "accessors": [
    {
      "bufferView": 2,
      "componentType": 5126,
      "count": 2136,
      "max": [
        12.458971977233887,
        60.83985137939453,
        6.397960662841797
      ],
      "min": [
        -12.40417766571045,
        43.92760467529297,
        -9.238739013671875
      ],
      "type": "VEC3"
    },
    {
      "bufferView": 2,
      "byteOffset": 25632,
      "componentType": 5126,
      "count": 2136,
      "max": [
        0.9995951056480408,
        0.9977760314941406,
        0.9997403025627136
      ],
      "min": [
        -0.9981679320335388,
        -0.9999598264694214,
        -0.9951169490814209
      ],
      "type": "VEC3"
    },
    {
      "bufferView": 3,
      "componentType": 5126,
      "count": 2136,
      "max": [
        0.964583158493042,
        0.9988827705383301,
        0.9989237189292908,
        1.0
      ],
      "min": [
        -0.9999562501907349,
        -0.9990451335906982,
        -0.9950013160705566,
        -1.0
      ],
      "type": "VEC4"
    },
    {
      "bufferView": 1,
      "componentType": 5126,
      "count": 2136,
      "max": [
        0.981535017490387,
        0.9161821603775024
      ],
      "min": [
        0.03812605142593384,
        0.034647464752197266
      ],
      "type": "VEC2"
    },
    {
      "bufferView": 0,
      "componentType": 5125,
      "count": 11886,
      "type": "SCALAR"
    }
  ],
  "asset": {
    "extras": {
      "author": "Devden (https://sketchfab.com/Devden)",
      "license": "CC-BY-4.0 (http://creativecommons.org/licenses/by/4.0/)",
      "source": "https://sketchfab.com/3d-models/human-diaphragm-b62b76467c6948fbb735c78c0c428d65",
      "title": "Human Diaphragm"
    },
    "generator": "Sketchfab-12.68.0",
    "version": "2.0"
  },
  "bufferViews": [
    {
      "buffer": 0,
      "byteLength": 47544,
      "name": "floatBufferViews",
      "target": 34963
    },
    {
      "buffer": 0,
      "byteLength": 17088,
      "byteOffset": 47544,
      "byteStride": 8,
      "name": "floatBufferViews",
      "target": 34962
    },
    {
      "buffer": 0,
      "byteLength": 51264,
      "byteOffset": 64632,
      "byteStride": 12,
      "name": "floatBufferViews",
      "target": 34962
    },
    {
      "buffer": 0,
      "byteLength": 34176,
      "byteOffset": 115896,
      "byteStride": 16,
      "name": "floatBufferViews",
      "target": 34962
    }
  ],
  "buffers": [
    {
      "byteLength": 150072,
      "uri": "scene.bin"
    }
  ],
  "images": [
    {
      "uri": "textures/diaphragm_mat_1_baseColor.webp"
    },
    {
      "uri": "textures/diaphragm_mat_1_metallicRoughness.webp"
    },
    {
      "uri": "textures/diaphragm_mat_1_normal.webp"
    }
  ],
  "materials": [
    {
      "doubleSided": true,
      "name": "diaphragm_mat_1",
      "normalTexture": {
        "index": 2
      },
      "occlusionTexture": {
        "index": 1
      },
      "pbrMetallicRoughness": {
        "baseColorTexture": {
          "index": 0
        },
        "metallicRoughnessTexture": {
          "index": 1
        },
        "roughnessFactor": 0.30000000000000004
      }
    }
  ],
  "meshes": [
    {
      "name": "diaphragm_diaphragm_mat_1_0",
      "primitives": [
        {
          "attributes": {
            "NORMAL": 1,
            "POSITION": 0,
            "TANGENT": 2,
            "TEXCOORD_0": 3
          },
          "indices": 4,
          "material": 0,
          "mode": 4
        }
      ]
    }
  ],
  "nodes": [
    {
      "children": [
        1
      ],
      "matrix": [
        0.6441202163696289,
        0.0,
        0.0,
        0.0,
        0.0,
        1.4302341896801993e-16,
        -0.6441202163696289,
        0.0,
        0.0,
        0.6441202163696289,
        1.4302341896801993e-16,
        0.0,
        0.0,
        0.0,
        0.0,
        1.0
      ],
      "name": "Sketchfab_model"
    },
    {
      "children": [
        2
      ],
      "matrix": [
        0.009999999776482582,
        0.0,
        0.0,
        0.0,
        0.0,
        0.0,
        0.009999999776482582,
        0.0,
        0.0,
        -0.009999999776482582,
        0.0,
        0.0,
        0.0,
        0.0,
        0.0,
        1.0
      ],
      "name": "881b012b770044e9aa17a272ae0f6a7e.fbx"
    },
    {
      "children": [
        3
      ],
      "name": "RootNode"
    },
    {
      "children": [
        4
      ],
      "name": "human_organ_system"
    },
    {
      "children": [
        5
      ],
      "name": "diaphragm"
    },
    {
      "mesh": 0,
      "name": "diaphragm_diaphragm_mat_1_0"
    }
  ],
  "samplers": [
    {
      "magFilter": 9729,
      "minFilter": 9987,
      "wrapS": 10497,
      "wrapT": 10497
    }
  ],
  "scene": 0,
  "scenes": [
    {
      "name": "Sketchfab_Scene",
      "nodes": [
        0
      ]
    }
  ],
  "textures": [
    {
      "sampler": 0,
      "source": 0
    },
    {
      "sampler": 0,
      "source": 1
    },
    {
      "sampler": 0,
      "source": 2
    }
  ]
}
