{
  "accessors": [
    {
      "bufferView": 2,
      "componentType": 5126,
      "count": 29957,
      "max": [
        9.945330619812012,
        6.126897811889648,
        69.59765625
      ],
      "min": [
        -10.173128128051758,
        -6.03049898147583,
        -0.22695299983024597
      ],
      "type": "VEC3"
    },
    {
      "bufferView": 2,
      "byteOffset": 359484,
      "componentType": 5126,
      "count": 29957,
      "max": [
        0.9999874234199524,
        0.9999950528144836,
        0.9997590184211731
      ],
      "min": [
        -0.9999811053276062,
        -0.9999894499778748,
        -0.9997276663780212
      ],
      "type": "VEC3"
    },
    {
      "bufferView": 1,
      "componentType": 5126,
      "count": 29957,
      "max": [
        0.9924759864807129,
        0.9971960186958313
      ],
      "min": [
        0.0049959998577833176,
        0.008094999939203262
      ],
      "type": "VEC2"
    },
    {
      "bufferView": 0,
      "componentType": 5125,
      "count": 164508,
      "type": "SCALAR"
    },
    {
      "bufferView": 2,
      "byteOffset": 718968,
      "componentType": 5126,
      "count": 20963,
      "max": [
        1.1097179651260376,
        1.2868000268936157,
        38.222660064697266
      ],
      "min": [
        -1.026229977607727,
        -1.5902570486068726,
        34.113224029541016
      ],
      "type": "VEC3"
    },
    {
      "bufferView": 2,
      "byteOffset": 970524,
      "componentType": 5126,
      "count": 20963,
      "max": [
        0.999973475933075,
        0.99992436170578,
        0.9999027252197266
      ],
      "min": [
        -0.9999558329582214,
        -0.9998575448989868,
        -0.9998247623443604
      ],
      "type": "VEC3"
    },
    {
      "bufferView": 1,
      "byteOffset": 239656,
      "componentType": 5126,
      "count": 20963,
      "max": [
        0.9902300238609314,
        0.9991099834442139
      ],
      "min": [
        0.0024610001128166914,
        0.0005859999801032245
      ],
      "type": "VEC2"
    },
    {
      "bufferView": 0,
      "byteOffset": 658032,
      "componentType": 5125,
      "count": 117264,
      "type": "SCALAR"
    },
    {
      "bufferView": 2,
      "byteOffset": 1222080,
      "componentType": 5126,
      "count": 9046,
      "max": [
        1.2225960493087769,
        4.193628787994385,
        58.576683044433594
      ],
      "min": [
        -1.2570610046386719,
        1.1227140426635742,
        56.23319625854492
      ],
      "type": "VEC3"
    },
    {
      "bufferView": 2,
      "byteOffset": 1330632,
      "componentType": 5126,
      "count": 9046,
      "max": [
        0.9996217489242554,
        0.9999749064445496,
        0.999917209148407
      ],
      "min": [
        -0.9999989867210388,
        -0.9999671578407288,
        -0.999955952167511
      ],
      "type": "VEC3"
    },
    {
      "bufferView": 1,
      "byteOffset": 407360,
      "componentType": 5126,
      "count": 9046,
      "max": [
        1.033411979675293,
        1.0207090377807617
      ],
      "min": [
        -0.03341199830174446,
        0.0
      ],
      "type": "VEC2"
    },
    {
      "bufferView": 0,
      "byteOffset": 1127088,
      "componentType": 5125,
      "count": 40362,
      "type": "SCALAR"
    },
    {
      "bufferView": 2,
      "byteOffset": 1439184,
      "componentType": 5126,
      "count": 8157,
      "max": [
        1.2451809644699097,
        4.164947032928467,
        58.53700256347656
      ],
      "min": [
        -1.2512569427490234,
        0.5608680248260498,
        47.33091354370117
      ],
      "type": "VEC3"
    },
    {
      "bufferView": 2,
      "byteOffset": 1537068,
      "componentType": 5126,
      "count": 8157,
      "max": [
        0.9999054670333862,
        0.9999246597290039,
        0.9999873042106628
      ],
      "min": [
        -0.9999932646751404,
        -0.9993771314620972,
        -0.9999064803123474
      ],
      "type": "VEC3"
    },
    {
      "bufferView": 1,
      "byteOffset": 479728,
      "componentType": 5126,
      "count": 8157,
      "max": [
        1.0,
        1.0
      ],
      "min": [
        0.0,
        0.0
      ],
      "type": "VEC2"
    },
    {
      "bufferView": 0,
      "byteOffset": 1288536,
      "componentType": 5125,
      "count": 36024,
      "type": "SCALAR"
    },
    {
      "bufferView": 2,
      "byteOffset": 1634952,
      "componentType": 5126,
      "count": 7446,
      "max": [
        1.1989669799804688,
        3.8879659175872803,
        54.19460678100586
      ],
      "min": [
        -1.2134950160980225,
        0.9333549737930298,
        49.62908935546875
      ],
      "type": "VEC3"
    },
    {
      "bufferView": 2,
      "byteOffset": 1724304,
      "componentType": 5126,
      "count": 7446,
      "max": [
        0.9990241527557373,
        0.9996311664581299,
        0.9999803900718689
      ],
      "min": [
        -0.9988681674003601,
        -0.999961256980896,
        -0.9999676942825317
      ],
      "type": "VEC3"
    },
    {
      "bufferView": 1,
      "byteOffset": 544984,
      "componentType": 5126,
      "count": 7446,
      "max": [
        1.0,
        1.0
      ],
      "min": [
        0.0,
        -0.0
      ],
      "type": "VEC2"
    },
    {
      "bufferView": 0,
      "byteOffset": 1432632,
      "componentType": 5125,
      "count": 32490,
      "type": "SCALAR"
    },
    {
      "bufferView": 2,
      "byteOffset": 1813656,
      "componentType": 5126,
      "count": 7941,
      "max": [
        1.2586640119552612,
        4.310869216918945,
        54.53632736206055
      ],
      "min": [
        -1.2745050191879272,
        0.8612679839134216,
        42.18749237060547
      ],
      "type": "VEC3"
    },
    {
      "bufferView": 2,
      "byteOffset": 1908948,
      "componentType": 5126,
      "count": 7941,
      "max": [
        0.999781608581543,
        0.9998534917831421,
        0.9999482035636902
      ],
      "min": [
        -0.9999192953109741,
        -0.9999628663063049,
        -0.9998628497123718
      ],
      "type": "VEC3"
    },
    {
      "bufferView": 1,
      "byteOffset": 604552,
      "componentType": 5126,
      "count": 7941,
      "max": [
        1.0,
        1.0
      ],
      "min": [
        0.0,
        0.0
      ],
      "type": "VEC2"
    },
    {
      "bufferView": 0,
      "byteOffset": 1562592,
      "componentType": 5125,
      "count": 34158,
      "type": "SCALAR"
    },
    {
      "bufferView": 2,
      "byteOffset": 2004240,
      "componentType": 5126,
      "count": 7779,
      "max": [
        1.2510160207748413,
        4.39353084564209,
        55.949127197265625
      ],
      "min": [
        -1.2754770517349243,
        1.6596230268478394,
        53.56830978393555
      ],
      "type": "VEC3"
    },
    {
      "bufferView": 2,
      "byteOffset": 2097588,
      "componentType": 5126,
      "count": 7779,
      "max": [
        0.999727189540863,
        0.9999150037765503,
        0.9999814033508301
      ],
      "min": [
        -0.9998604655265808,
        -0.9997385144233704,
        -0.9999926090240479
      ],
      "type": "VEC3"
    },
    {
      "bufferView": 1,
      "byteOffset": 668080,
      "componentType": 5126,
      "count": 7779,
      "max": [
        1.0,
        1.0
      ],
      "min": [
        0.0,
        -0.0
      ],
      "type": "VEC2"
    },
    {
      "bufferView": 0,
      "byteOffset": 1699224,
      "componentType": 5125,
      "count": 33528,
      "type": "SCALAR"
    },
    {
      "bufferView": 2,
      "byteOffset": 2190936,
      "componentType": 5126,
      "count": 9161,
      "max": [
        1.2899199724197388,
        4.200122833251953,
        60.716548919677734
      ],
      "min": [
        -1.2913479804992676,
        0.6368309855461121,
        55.397300720214844
      ],
      "type": "VEC3"
    },
    {
      "bufferView": 2,
      "byteOffset": 2300868,
      "componentType": 5126,
      "count": 9161,
      "max": [
        0.9986834526062012,
        0.9998123049736023,
        0.9999916553497314
      ],
      "min": [
        -0.9999702572822571,
        -0.9995207190513611,
        -0.9999353885650635
      ],
      "type": "VEC3"
    },
    {
      "bufferView": 1,
      "byteOffset": 730312,
      "componentType": 5126,
      "count": 9161,
      "max": [
        1.0,
        1.0
      ],
      "min": [
        0.0,
        0.0
      ],
      "type": "VEC2"
    },
    {
      "bufferView": 0,
      "byteOffset": 1833336,
      "componentType": 5125,
      "count": 40956,
      "type": "SCALAR"
    },
    {
      "bufferView": 2,
      "byteOffset": 2410800,
      "componentType": 5126,
      "count": 9074,
      "max": [
        0.9739900231361389,
        3.4327878952026367,
        60.09730911254883
      ],
      "min": [
        -1.0499529838562012,
        0.7334870100021362,
        58.205894470214844
      ],
      "type": "VEC3"
    },
    {
      "bufferView": 2,
      "byteOffset": 2519688,
      "componentType": 5126,
      "count": 9074,
      "max": [
        0.9999914765357971,
        0.9999430179595947,
        0.9999982118606567
      ],
      "min": [
        -0.99998539686203,
        -0.999780535697937,
        -0.9996741414070129
      ],
      "type": "VEC3"
    },
    {
      "bufferView": 1,
      "byteOffset": 803600,
      "componentType": 5126,
      "count": 9074,
      "max": [
        1.0,
        1.0
      ],
      "min": [
        0.0,
        0.0
      ],
      "type": "VEC2"
    },
    {
      "bufferView": 0,
      "byteOffset": 1997160,
      "componentType": 5125,
      "count": 40710,
      "type": "SCALAR"
    },
    {
      "bufferView": 2,
      "byteOffset": 2628576,
      "componentType": 5126,
      "count": 5773,
      "max": [
        0.9199550151824951,
        3.430469036102295,
        60.909202575683594
      ],
      "min": [
        -0.9388589859008789,
        0.6392959952354431,
        58.40121841430664
      ],
      "type": "VEC3"
    },
    {
      "bufferView": 2,
      "byteOffset": 2697852,
      "componentType": 5126,
      "count": 5773,
      "max": [
        0.9998134970664978,
        0.9997992515563965,
        0.9992268085479736
      ],
      "min": [
        -0.9993707537651062,
        -0.9999759793281555,
        -0.9999659657478333
      ],
      "type": "VEC3"
    },
    {
      "bufferView": 1,
      "byteOffset": 876192,
      "componentType": 5126,
      "count": 5773,
      "max": [
        1.0,
        1.0
      ],
      "min": [
        0.0,
        -0.0
      ],
      "type": "VEC2"
    },
    {
      "bufferView": 0,
      "byteOffset": 2160000,
      "componentType": 5125,
      "count": 26736,
      "type": "SCALAR"
    },
    {
      "bufferView": 2,
      "byteOffset": 2767128,
      "componentType": 5126,
      "count": 5167,
      "max": [
        0.9103500247001648,
        2.585345983505249,
        61.99976348876953
      ],
      "min": [
        -0.9320470094680786,
        0.5484489798545837,
        60.557525634765625
      ],
      "type": "VEC3"
    },
    {
      "bufferView": 2,
      "byteOffset": 2829132,
      "componentType": 5126,
      "count": 5167,
      "max": [
        0.9998982548713684,
        0.9993763566017151,
        0.9995332956314087
      ],
      "min": [
        -0.9998250603675842,
        -0.9996874332427979,
        -0.9984091520309448
      ],
      "type": "VEC3"
    },
    {
      "bufferView": 1,
      "byteOffset": 922376,
      "componentType": 5126,
      "count": 5167,
      "max": [
        1.0,
        1.0
      ],
      "min": [
        0.0,
        -0.0
      ],
      "type": "VEC2"
    },
    {
      "bufferView": 0,
      "byteOffset": 2266944,
      "componentType": 5125,
      "count": 23676,
      "type": "SCALAR"
    },
    {
      "bufferView": 2,
      "byteOffset": 2891136,
      "componentType": 5126,
      "count": 8865,
      "max": [
        1.4328490495681763,
        2.581804037094116,
        62.69865798950195
      ],
      "min": [
        -1.4573700428009033,
        -0.8054689764976501,
        41.54903030395508
      ],
      "type": "VEC3"
    },
    {
      "bufferView": 2,
      "byteOffset": 2997516,
      "componentType": 5126,
      "count": 8865,
      "max": [
        0.9997084140777588,
        0.9999549984931946,
        0.9999217987060547
      ],
      "min": [
        -0.9998833537101746,
        -0.9998986721038818,
        -0.9999831318855286
      ],
      "type": "VEC3"
    },
    {
      "bufferView": 1,
      "byteOffset": 963712,
      "componentType": 5126,
      "count": 8865,
      "max": [
        1.0,
        1.0
      ],
      "min": [
        0.0,
        0.0
      ],
      "type": "VEC2"
    },
    {
      "bufferView": 0,
      "byteOffset": 2361648,
      "componentType": 5125,
      "count": 39810,
      "type": "SCALAR"
    },
    {
      "bufferView": 2,
      "byteOffset": 3103896,
      "componentType": 5126,
      "count": 8845,
      "max": [
        1.429900050163269,
        2.6552510261535645,
        62.619258880615234
      ],
      "min": [
        -1.4642119407653809,
        -0.7844799757003784,
        41.08393096923828
      ],
      "type": "VEC3"
    },
    {
      "bufferView": 2,
      "byteOffset": 3210036,
      "componentType": 5126,
      "count": 8845,
      "max": [
        0.99983149766922,
        0.9998539686203003,
        0.9999972581863403
      ],
      "min": [
        -0.9999957084655762,
        -0.9999660849571228,
        -0.9999974370002747
      ],
      "type": "VEC3"
    },
    {
      "bufferView": 1,
      "byteOffset": 1034632,
      "componentType": 5126,
      "count": 8845,
      "max": [
        1.0,
        1.0
      ],
      "min": [
        0.0,
        0.0
      ],
      "type": "VEC2"
    },
    {
      "bufferView": 0,
      "byteOffset": 2520888,
      "componentType": 5125,
      "count": 37164,
      "type": "SCALAR"
    },
    {
      "bufferView": 2,
      "byteOffset": 3316176,
      "componentType": 5126,
      "count": 8991,
      "max": [
        1.3362590074539185,
        3.064168930053711,
        49.10933303833008
      ],
      "min": [
        -1.3412129878997803,
        -0.6986839771270752,
        44.937339782714844
      ],
      "type": "VEC3"
    },
    {
      "bufferView": 2,
      "byteOffset": 3424068,
      "componentType": 5126,
      "count": 8991,
      "max": [
        0.9998927116394043,
        0.9999998807907104,
        0.9999815821647644
      ],
      "min": [
        -0.9999278783798218,
        -0.9997343420982361,
        -0.9997169971466064
      ],
      "type": "VEC3"
    },
    {
      "bufferView": 1,
      "byteOffset": 1105392,
      "componentType": 5126,
      "count": 8991,
      "max": [
        0.996740996837616,
        1.0
      ],
      "min": [
        0.0,
        0.0
      ],
      "type": "VEC2"
    },
    {
      "bufferView": 0,
      "byteOffset": 2669544,
      "componentType": 5125,
      "count": 38412,
      "type": "SCALAR"
    },
    {
      "bufferView": 2,
      "byteOffset": 3531960,
      "componentType": 5126,
      "count": 7897,
      "max": [
        1.0347789525985718,
        0.20864500105381012,
        36.95728302001953
      ],
      "min": [
        -0.9287260174751282,
        -2.594602108001709,
        34.16450500488281
      ],
      "type": "VEC3"
    },
    {
      "bufferView": 2,
      "byteOffset": 3626724,
      "componentType": 5126,
      "count": 7897,
      "max": [
        0.9999907612800598,
        0.9989773035049438,
        0.9999839663505554
      ],
      "min": [
        -0.9998982548713684,
        -0.9986711144447327,
        -0.999992311000824
      ],
      "type": "VEC3"
    },
    {
      "bufferView": 1,
      "byteOffset": 1177320,
      "componentType": 5126,
      "count": 7897,
      "max": [
        0.9970219731330872,
        0.9994999766349792
      ],
      "min": [
        0.0005000000237487257,
        0.0005000000237487257
      ],
      "type": "VEC2"
    },
    {
      "bufferView": 0,
      "byteOffset": 2823192,
      "componentType": 5125,
      "count": 44736,
      "type": "SCALAR"
    },
    {
      "bufferView": 2,
      "byteOffset": 3721488,
      "componentType": 5126,
      "count": 2229,
      "max": [
        0.6163780093193054,
        3.6338999271392822,
        36.36757278442383
      ],
      "min": [
        -0.5011879801750183,
        3.026434898376465,
        35.481327056884766
      ],
      "type": "VEC3"
    },
    {
      "bufferView": 2,
      "byteOffset": 3748236,
      "componentType": 5126,
      "count": 2229,
      "max": [
        0.9986031651496887,
        0.9998542666435242,
        0.9998937249183655
      ],
      "min": [
        -0.9998337030410767,
        -0.9987867474555969,
        -0.9865052103996277
      ],
      "type": "VEC3"
    },
    {
      "bufferView": 1,
      "byteOffset": 1240496,
      "componentType": 5126,
      "count": 2229,
      "max": [
        1.0,
        1.0
      ],
      "min": [
        -0.0,
        0.0
      ],
      "type": "VEC2"
    },
    {
      "bufferView": 0,
      "byteOffset": 3002136,
      "componentType": 5125,
      "count": 9540,
      "type": "SCALAR"
    },
    {
      "bufferView": 2,
      "byteOffset": 3774984,
      "componentType": 5126,
      "count": 7538,
      "max": [
        6.1022210121154785,
        2.908396005630493,
        42.45973205566406
      ],
      "min": [
        0.1731099933385849,
        -2.8763649463653564,
        34.23282241821289
      ],
      "type": "VEC3"
    },
    {
      "bufferView": 2,
      "byteOffset": 3865440,
      "componentType": 5126,
      "count": 7538,
      "max": [
        0.9996747970581055,
        0.9923321604728699,
        0.9972783327102661
      ],
      "min": [
        -0.9999899864196777,
        -0.9999488592147827,
        -0.9995494484901428
      ],
      "type": "VEC3"
    },
    {
      "bufferView": 1,
      "byteOffset": 1258328,
      "componentType": 5126,
      "count": 7538,
      "max": [
        0.9994999766349792,
        0.9959650039672852
      ],
      "min": [
        0.0005000000237487257,
        0.0005000000237487257
      ],
      "type": "VEC2"
    },
    {
      "bufferView": 0,
      "byteOffset": 3040296,
      "componentType": 5125,
      "count": 42384,
      "type": "SCALAR"
    },
    {
      "bufferView": 2,
      "byteOffset": 3955896,
      "componentType": 5126,
      "count": 7526,
      "max": [
        -0.01510199997574091,
        2.9084019660949707,
        42.4597282409668
      ],
      "min": [
        -5.944211959838867,
        -2.876373052597046,
        34.232818603515625
      ],
      "type": "VEC3"
    },
    {
      "bufferView": 2,
      "byteOffset": 4046208,
      "componentType": 5126,
      "count": 7526,
      "max": [
        0.9999919533729553,
        0.9902721047401428,
        0.9972951412200928
      ],
      "min": [
        -0.9996417760848999,
        -0.9996304512023926,
        -0.9997497797012329
      ],
      "type": "VEC3"
    },
    {
      "bufferView": 1,
      "byteOffset": 1318632,
      "componentType": 5126,
      "count": 7526,
      "max": [
        0.9994999766349792,
        0.9959650039672852
      ],
      "min": [
        0.0005000000237487257,
        0.0005000000237487257
      ],
      "type": "VEC2"
    },
    {
      "bufferView": 0,
      "byteOffset": 3209832,
      "componentType": 5125,
      "count": 42384,
      "type": "SCALAR"
    },
    {
      "bufferView": 2,
      "byteOffset": 4136520,
      "componentType": 5126,
      "count": 11551,
      "max": [
        2.7479310035705566,
        4.3646321296691895,
        41.497920989990234
      ],
      "min": [
        -2.5530409812927246,
        -0.44960901141166687,
        36.257320404052734
      ],
      "type": "VEC3"
    },
    {
      "bufferView": 2,
      "byteOffset": 4275132,
      "componentType": 5126,
      "count": 11551,
      "max": [
        0.9974018335342407,
        0.9999980926513672,
        0.9995966553688049
      ],
      "min": [
        -0.9989414215087891,
        -0.9999982714653015,
        -0.9998759627342224
      ],
      "type": "VEC3"
    },
    {
      "bufferView": 1,
      "byteOffset": 1378840,
      "componentType": 5126,
      "count": 11551,
      "max": [
        0.9928269982337952,
        0.9994999766349792
      ],
      "min": [
        0.0005000000237487257,
        0.0005000000237487257
      ],
      "type": "VEC2"
    },
    {
      "bufferView": 0,
      "byteOffset": 3379368,
      "componentType": 5125,
      "count": 64206,
      "type": "SCALAR"
    },
    {
      "bufferView": 2,
      "byteOffset": 4413744,
      "componentType": 5126,
      "count": 1105,
      "max": [
        2.6240310668945313,
        4.094872951507568,
        41.11166000366211
      ],
      "min": [
        -2.426403045654297,
        -0.04208900034427643,
        36.91259765625
      ],
      "type": "VEC3"
    },
    {
      "bufferView": 2,
      "byteOffset": 4427004,
      "componentType": 5126,
      "count": 1105,
      "max": [
        0.9996264576911926,
        0.9997279644012451,
        0.9883919358253479
      ],
      "min": [
        -0.9996263980865479,
        -0.9982460141181946,
        -0.9994544386863708
      ],
      "type": "VEC3"
    },
    {
      "bufferView": 1,
      "byteOffset": 1471248,
      "componentType": 5126,
      "count": 1105,
      "max": [
        0.9806950092315674,
        0.9305170178413391
      ],
      "min": [
        0.008369999937713146,
        0.047047000378370285
      ],
      "type": "VEC2"
    },
    {
      "bufferView": 0,
      "byteOffset": 3636192,
      "componentType": 5125,
      "count": 3348,
      "type": "SCALAR"
    },
    {
      "bufferView": 2,
      "byteOffset": 4440264,
      "componentType": 5126,
      "count": 11420,
      "max": [
        2.6652209758758545,
        4.283710956573486,
        41.45668029785156
      ],
      "min": [
        -2.4706480503082275,
        -0.36531901359558105,
        36.351593017578125
      ],
      "type": "VEC3"
    },
    {
      "bufferView": 2,
      "byteOffset": 4577304,
      "componentType": 5126,
      "count": 11420,
      "max": [
        0.9999679327011108,
        0.999998927116394,
        0.9999821782112122
      ],
      "min": [
        -0.9999678134918213,
        -0.9998779892921448,
        -0.9987834692001343
      ],
      "type": "VEC3"
    },
    {
      "bufferView": 1,
      "byteOffset": 1480088,
      "componentType": 5126,
      "count": 11420,
      "max": [
        0.9928269982337952,
        0.9994999766349792
      ],
      "min": [
        0.0005000000237487257,
        0.0005000000237487257
      ],
      "type": "VEC2"
    },
    {
      "bufferView": 0,
      "byteOffset": 3649584,
      "componentType": 5125,
      "count": 61464,
      "type": "SCALAR"
    },
    {
      "bufferView": 2,
      "byteOffset": 4714344,
      "componentType": 5126,
      "count": 9171,
      "max": [
        0.807574987411499,
        2.584481954574585,
        53.223087310791016
      ],
      "min": [
        -0.8115400075912476,
        -0.3663490116596222,
        46.34403610229492
      ],
      "type": "VEC3"
    },
    {
      "bufferView": 2,
      "byteOffset": 4824396,
      "componentType": 5126,
      "count": 9171,
      "max": [
        0.9996630549430847,
        0.9999635815620422,
        0.9998714327812195
      ],
      "min": [
        -0.9991918802261353,
        -0.9999197721481323,
        -0.9999228715896606
      ],
      "type": "VEC3"
    },
    {
      "bufferView": 1,
      "byteOffset": 1571448,
      "componentType": 5126,
      "count": 9171,
      "max": [
        0.9924039840698242,
        1.0
      ],
      "min": [
        -0.02777799963951111,
        0.0
      ],
      "type": "VEC2"
    },
    {
      "bufferView": 0,
      "byteOffset": 3895440,
      "componentType": 5125,
      "count": 49584,
      "type": "SCALAR"
    },
    {
      "bufferView": 2,
      "byteOffset": 4934448,
      "componentType": 5126,
      "count": 9585,
      "max": [
        1.0260339975357056,
        2.747607946395874,
        53.22710037231445
      ],
      "min": [
        -0.7720810174942017,
        -0.7540330290794373,
        40.830650329589844
      ],
      "type": "VEC3"
    },
    {
      "bufferView": 2,
      "byteOffset": 5049468,
      "componentType": 5126,
      "count": 9585,
      "max": [
        0.9999344348907471,
        0.9999769330024719,
        0.9999807476997375
      ],
      "min": [
        -0.9999240636825562,
        -0.9999440908432007,
        -0.9999791383743286
      ],
      "type": "VEC3"
    },
    {
      "bufferView": 1,
      "byteOffset": 1644816,
      "componentType": 5126,
      "count": 9585,
      "max": [
        0.9924039840698242,
        1.0
      ],
      "min": [
        -0.02777799963951111,
        0.0
      ],
      "type": "VEC2"
    },
    {
      "bufferView": 0,
      "byteOffset": 4093776,
      "componentType": 5125,
      "count": 51696,
      "type": "SCALAR"
    },
    {
      "bufferView": 2,
      "byteOffset": 5164488,
      "componentType": 5126,
      "count": 7927,
      "max": [
        0.742031991481781,
        1.6524200439453125,
        61.31706619262695
      ],
      "min": [
        -0.4906879961490631,
        -2.617366075515747,
        35.08791732788086
      ],
      "type": "VEC3"
    },
    {
      "bufferView": 2,
      "byteOffset": 5259612,
      "componentType": 5126,
      "count": 7927,
      "max": [
        0.9999864101409912,
        0.999812126159668,
        0.9999701380729675
      ],
      "min": [
        -0.9999843835830688,
        -0.999927818775177,
        -0.9999957084655762
      ],
      "type": "VEC3"
    },
    {
      "bufferView": 1,
      "byteOffset": 1721496,
      "componentType": 5126,
      "count": 7927,
      "max": [
        1.0141810178756714,
        1.049446940422058
      ],
      "min": [
        -0.02777799963951111,
        -0.1574680060148239
      ],
      "type": "VEC2"
    },
    {
      "bufferView": 0,
      "byteOffset": 4300560,
      "componentType": 5125,
      "count": 42000,
      "type": "SCALAR"
    },
    {
      "bufferView": 2,
      "byteOffset": 5354736,
      "componentType": 5126,
      "count": 9308,
      "max": [
        0.555374026298523,
        2.727055072784424,
        61.437591552734375
      ],
      "min": [
        -0.5957120060920715,
        0.5430669784545898,
        55.289310455322266
      ],
      "type": "VEC3"
    },
    {
      "bufferView": 2,
      "byteOffset": 5466432,
      "componentType": 5126,
      "count": 9308,
      "max": [
        0.9999832510948181,
        0.9999011158943176,
        0.9999851584434509
      ],
      "min": [
        -0.9999290108680725,
        -0.9996561408042908,
        -0.9999948740005493
      ],
      "type": "VEC3"
    },
    {
      "bufferView": 1,
      "byteOffset": 1784912,
      "componentType": 5126,
      "count": 9308,
      "max": [
        1.0387769937515259,
        1.0
      ],
      "min": [
        -0.02777799963951111,
        -0.03034600056707859
      ],
      "type": "VEC2"
    },
    {
      "bufferView": 0,
      "byteOffset": 4468560,
      "componentType": 5125,
      "count": 49584,
      "type": "SCALAR"
    },
    {
      "bufferView": 2,
      "byteOffset": 5578128,
      "componentType": 5126,
      "count": 3524,
      "max": [
        0.5655810236930847,
        2.776360034942627,
        54.74491500854492
      ],
      "min": [
        -0.6356850266456604,
        1.706881046295166,
        53.72557067871094
      ],
      "type": "VEC3"
    },
    {
      "bufferView": 2,
      "byteOffset": 5620416,
      "componentType": 5126,
      "count": 3524,
      "max": [
        0.9991685748100281,
        0.9997199177742004,
        0.9999985694885254
      ],
      "min": [
        -0.9999726414680481,
        -0.9995952844619751,
        -0.9999990463256836
      ],
      "type": "VEC3"
    },
    {
      "bufferView": 1,
      "byteOffset": 1859376,
      "componentType": 5126,
      "count": 3524,
      "max": [
        0.9924039840698242,
        1.0
      ],
      "min": [
        -0.02777799963951111,
        0.0
      ],
      "type": "VEC2"
    },
    {
      "bufferView": 0,
      "byteOffset": 4666896,
      "componentType": 5125,
      "count": 18912,
      "type": "SCALAR"
    },
    {
      "bufferView": 2,
      "byteOffset": 5662704,
      "componentType": 5126,
      "count": 15265,
      "max": [
        2.232706069946289,
        1.0534850358963013,
        38.8724365234375
      ],
      "min": [
        1.0081939697265625,
        -1.2190990447998047,
        37.45347213745117
      ],
      "type": "VEC3"
    },
    {
      "bufferView": 2,
      "byteOffset": 5845884,
      "componentType": 5126,
      "count": 15265,
      "max": [
        0.9999158978462219,
        0.9993125200271606,
        0.9999364018440247
      ],
      "min": [
        -0.9999580383300781,
        -0.9999211430549622,
        -0.9998728036880493
      ],
      "type": "VEC3"
    },
    {
      "bufferView": 1,
      "byteOffset": 1887568,
      "componentType": 5126,
      "count": 15265,
      "max": [
        0.9970290064811707,
        0.9994999766349792
      ],
      "min": [
        0.0005000000237487257,
        0.0005000000237487257
      ],
      "type": "VEC2"
    },
    {
      "bufferView": 0,
      "byteOffset": 4742544,
      "componentType": 5125,
      "count": 82944,
      "type": "SCALAR"
    },
    {
      "bufferView": 2,
      "byteOffset": 6029064,
      "componentType": 5126,
      "count": 15190,
      "max": [
        -0.9239100217819214,
        1.0534850358963013,
        38.8724365234375
      ],
      "min": [
        -2.1484220027923584,
        -1.2190990447998047,
        37.45347213745117
      ],
      "type": "VEC3"
    },
    {
      "bufferView": 2,
      "byteOffset": 6211344,
      "componentType": 5126,
      "count": 15190,
      "max": [
        0.999914288520813,
        0.9995841383934021,
        0.9999797940254211
      ],
      "min": [
        -0.9998289942741394,
        -0.9999649524688721,
        -0.9998727440834045
      ],
      "type": "VEC3"
    },
    {
      "bufferView": 1,
      "byteOffset": 2009688,
      "componentType": 5126,
      "count": 15190,
      "max": [
        0.9970290064811707,
        0.9994999766349792
      ],
      "min": [
        0.0005000000237487257,
        0.0005000000237487257
      ],
      "type": "VEC2"
    },
    {
      "bufferView": 0,
      "byteOffset": 5074320,
      "componentType": 5125,
      "count": 82944,
      "type": "SCALAR"
    },
    {
      "bufferView": 2,
      "byteOffset": 6393624,
      "componentType": 5126,
      "count": 4724,
      "max": [
        1.5617389678955078,
        0.2663559913635254,
        37.749061584472656
      ],
      "min": [
        -1.4603739976882935,
        -0.7981659770011902,
        37.40035629272461
      ],
      "type": "VEC3"
    },
    {
      "bufferView": 2,
      "byteOffset": 6450312,
      "componentType": 5126,
      "count": 4724,
      "max": [
        0.999642550945282,
        0.9973756074905396,
        0.9999693036079407
      ],
      "min": [
        -0.9998508095741272,
        -0.9978188872337341,
        -0.9994576573371887
      ],
      "type": "VEC3"
    },
    {
      "bufferView": 1,
      "byteOffset": 2131208,
      "componentType": 5126,
      "count": 4724,
      "max": [
        0.9980000257492065,
        0.41487500071525574
      ],
      "min": [
        0.7019469738006592,
        0.17525599896907806
      ],
      "type": "VEC2"
    },
    {
      "bufferView": 0,
      "byteOffset": 5406096,
      "componentType": 5125,
      "count": 26112,
      "type": "SCALAR"
    },
    {
      "bufferView": 2,
      "byteOffset": 6507000,
      "componentType": 5126,
      "count": 10354,
      "max": [
        1.7858059406280518,
        0.9249640107154846,
        38.198909759521484
      ],
      "min": [
        -1.684440016746521,
        0.14085499942302704,
        37.58250427246094
      ],
      "type": "VEC3"
    },
    {
      "bufferView": 2,
      "byteOffset": 6631248,
      "componentType": 5126,
      "count": 10354,
      "max": [
        0.9998374581336975,
        0.9987690448760986,
        0.9997804760932922
      ],
      "min": [
        -0.9999215006828308,
        -0.999773383140564,
        -0.9997422099113464
      ],
      "type": "VEC3"
    },
    {
      "bufferView": 1,
      "byteOffset": 2169000,
      "componentType": 5126,
      "count": 10354,
      "max": [
        0.9696900248527527,
        0.9591140151023865
      ],
      "min": [
        0.023852000012993813,
        0.0029100000392645597
      ],
      "type": "VEC2"
    },
    {
      "bufferView": 0,
      "byteOffset": 5510544,
      "componentType": 5125,
      "count": 46080,
      "type": "SCALAR"
    },
    {
      "bufferView": 2,
      "byteOffset": 6755496,
      "componentType": 5126,
      "count": 7758,
      "max": [
        2.139033079147339,
        1.9949209690093994,
        48.994476318359375
      ],
      "min": [
        -2.102721929550171,
        0.8564490079879761,
        47.43687438964844
      ],
      "type": "VEC3"
    },
    {
      "bufferView": 2,
      "byteOffset": 6848592,
      "componentType": 5126,
      "count": 7758,
      "max": [
        0.9999760389328003,
        0.9996774792671204,
        0.9994873404502869
      ],
      "min": [
        -0.9983858466148376,
        -0.9964601993560791,
        -0.9993245005607605
      ],
      "type": "VEC3"
    },
    {
      "bufferView": 1,
      "byteOffset": 2251832,
      "componentType": 5126,
      "count": 7758,
      "max": [
        1.0068769454956055,
        1.0031780004501343
      ],
      "min": [
        -0.004009000025689602,
        -0.029867999255657196
      ],
      "type": "VEC2"
    },
    {
      "bufferView": 0,
      "byteOffset": 5694864,
      "componentType": 5125,
      "count": 28575,
      "type": "SCALAR"
    },
    {
      "bufferView": 2,
      "byteOffset": 6941688,
      "componentType": 5126,
      "count": 7411,
      "max": [
        2.1438400745391846,
        1.9210569858551025,
        49.174137115478516
      ],
      "min": [
        0.9850770235061646,
        0.8564490079879761,
        48.265235900878906
      ],
      "type": "VEC3"
    },
    {
      "bufferView": 2,
      "byteOffset": 7030620,
      "componentType": 5126,
      "count": 7411,
      "max": [
        0.9961831569671631,
        0.9995254874229431,
        0.9995912313461304
      ],
      "min": [
        -0.9998508095741272,
        -0.9996429085731506,
        -0.9999598860740662
      ],
      "type": "VEC3"
    },
    {
      "bufferView": 1,
      "byteOffset": 2313896,
      "componentType": 5126,
      "count": 7411,
      "max": [
        0.9982669949531555,
        1.0213439464569092
      ],
      "min": [
        0.004069000016897917,
        -0.03293199837207794
      ],
      "type": "VEC2"
    },
    {
      "bufferView": 0,
      "byteOffset": 5809164,
      "componentType": 5125,
      "count": 29541,
      "type": "SCALAR"
    },
    {
      "bufferView": 2,
      "byteOffset": 7119552,
      "componentType": 5126,
      "count": 9838,
      "max": [
        3.351576089859009,
        1.8719619512557983,
        48.872562408447266
      ],
      "min": [
        -3.224324941635132,
        -0.5480020046234131,
        44.99699020385742
      ],
      "type": "VEC3"
    },
    {
      "bufferView": 2,
      "byteOffset": 7237608,
      "componentType": 5126,
      "count": 9838,
      "max": [
        0.9997652173042297,
        0.9996445178985596,
        0.9997471570968628
      ],
      "min": [
        -0.9999297261238098,
        -0.999912440776825,
        -0.9991620182991028
      ],
      "type": "VEC3"
    },
    {
      "bufferView": 1,
      "byteOffset": 2373184,
      "componentType": 5126,
      "count": 9838,
      "max": [
        0.9879670143127441,
        0.9994999766349792
      ],
      "min": [
        0.0005000000237487257,
        0.0005000000237487257
      ],
      "type": "VEC2"
    },
    {
      "bufferView": 0,
      "byteOffset": 5927328,
      "componentType": 5125,
      "count": 57600,
      "type": "SCALAR"
    },
    {
      "bufferView": 2,
      "byteOffset": 7355664,
      "componentType": 5126,
      "count": 6405,
      "max": [
        2.0406389236450195,
        1.1626169681549072,
        47.525718688964844
      ],
      "min": [
        -1.8483949899673462,
        -0.7741870284080505,
        36.08272933959961
      ],
      "type": "VEC3"
    },
    {
      "bufferView": 2,
      "byteOffset": 7432524,
      "componentType": 5126,
      "count": 6405,
      "max": [
        0.9998829364776611,
        0.9998249411582947,
        0.9829781651496887
      ],
      "min": [
        -0.9996365904808044,
        -0.9997240900993347,
        -0.9967339634895325
      ],
      "type": "VEC3"
    },
    {
      "bufferView": 1,
      "byteOffset": 2451888,
      "componentType": 5126,
      "count": 6405,
      "max": [
        9.194937705993652,
        10.319744110107422
      ],
      "min": [
        -4.788341999053955,
        -64.49545288085938
      ],
      "type": "VEC2"
    },
    {
      "bufferView": 0,
      "byteOffset": 6157728,
      "componentType": 5125,
      "count": 38112,
      "type": "SCALAR"
    }
  ],
  "asset": {
    "extras": {
      "author": "CVallance (https://sketchfab.com/cvallance01)",
      "license": "CC-BY-4.0 (http://creativecommons.org/licenses/by/4.0/)",
      "source": "https://sketchfab.com/3d-models/female-reproductive-and-urinary-systems-0ba41334eb384f5b999d7469f906d3ae",
      "title": "Female Reproductive and Urinary Systems"
    },
    "generator": "Sketchfab-12.67.0",
    "version": "2.0"
  },
  "bufferViews": [
    {
      "buffer": 0,
      "byteLength": 6310176,
      "name": "floatBufferViews",
      "target": 34963
    },
    {
      "buffer": 0,
      "byteLength": 2503128,
      "byteOffset": 6310176,
      "byteStride": 8,
      "name": "floatBufferViews",
      "target": 34962
    },
    {
      "buffer": 0,
      "byteLength": 7509384,
      "byteOffset": 8813304,
      "byteStride": 12,
      "name": "floatBufferViews",
      "target": 34962
    }
  ],
  "buffers": [
    {
      "byteLength": 16322688,
      "uri": "scene.bin"
    }
  ],
  "extensionsRequired": [
    "KHR_materials_pbrSpecularGlossiness"
  ],
  "extensionsUsed": [
    "KHR_materials_pbrSpecularGlossiness"
  ],
  "images": [
    {
      "uri": "textures/BONE_NEW_larger_2_diffuse.jpeg"
    },
    {
      "uri": "textures/Bladder_diffuse.jpeg"
    },
    {
      "uri": "textures/Bladder_specularGlossiness.png"
    },
    {
      "uri": "textures/Bladder_occlusion.png"
    },
    {
      "uri": "textures/Bone__Female_Coccyx_occlusion.png"
    },
    {
      "uri": "textures/Bone__Female_Pelvis_diffuse.jpeg"
    },
    {
      "uri": "textures/Bone__Female_Pelvis_occlusion.png"
    },
    {
      "uri": "textures/Bone__Female_Sacrum_diffuse.jpeg"
    },
    {
      "uri": "textures/Bone__Female_Sacrum_specularGlossiness.jpeg"
    },
    {
      "uri": "textures/Bone__Female_Sacrum_occlusion.png"
    },
    {
      "uri": "textures/Cartilage_diffuse.jpeg"
    },
    {
      "uri": "textures/Fallopian_Tube_Whole_diffuse.jpeg"
    },
    {
      "uri": "textures/Fallopian_Tube_Whole_occlusion.png"
    },
    {
      "uri": "textures/Ovarian_Ligament_diffuse.jpeg"
    },
    {
      "uri": "textures/Ovary2_diffuse.jpeg"
    },
    {
      "uri": "textures/Ovary2_occlusion.png"
    },
    {
      "uri": "textures/Transparent_Skin_diffuse.png"
    },
    {
      "uri": "textures/Transparent_Skin_occlusion.png"
    },
    {
      "uri": "textures/Uterus_Whole_diffuse.jpeg"
    },
    {
      "uri": "textures/Uterus_Whole_occlusion.png"
    },
    {
      "uri": "textures/adrenal_gland_NEW_2_diffuse.jpeg"
    },
    {
      "uri": "textures/adrenal_gland_NEW_2_occlusion.png"
    },
    {
      "uri": "textures/kidney_new_diffuse.jpeg"
    },
    {
      "uri": "textures/kidney_new_occlusion.png"
    },
    {
      "uri": "textures/ureter_diffuse.jpeg"
    },
    {
      "uri": "textures/ureter_occlusion.png"
    }
  ],
  "materials": [
    {
      "doubleSided": true,
      "emissiveTexture": {
        "index": 0
      },
      "extensions": {
        "KHR_materials_pbrSpecularGlossiness": {
          "diffuseFactor": [
            1.0,
            1.0,
            1.0,
            1.0
          ],
          "diffuseTexture": {
            "index": 0
          },
          "glossinessFactor": 0.5610859797287027,
          "specularFactor": [
            0.14763420462214766,
            0.14763420462214766,
            0.14763420462214766
          ]
        }
      },
      "name": "BONE_NEW_larger_2"
    },
    {
      "doubleSided": true,
      "emissiveTexture": {
        "index": 1
      },
      "extensions": {
        "KHR_materials_pbrSpecularGlossiness": {
          "diffuseFactor": [
            1.0,
            1.0,
            1.0,
            1.0
          ],
          "diffuseTexture": {
            "index": 1
          },
          "glossinessFactor": 0.6887696161586683,
          "specularFactor": [
            1.0,
            1.0,
            1.0
          ],
          "specularGlossinessTexture": {
            "index": 2
          }
        }
      },
      "name": "Bladder",
      "occlusionTexture": {
        "index": 3
      }
    },
    {
      "doubleSided": true,
      "extensions": {
        "KHR_materials_pbrSpecularGlossiness": {
          "diffuseFactor": [
            1.0,
            1.0,
            1.0,
            1.0
          ],
          "diffuseTexture": {
            "index": 0
          },
          "glossinessFactor": 0.19627558992880118,
          "specularFactor": [
            1.0,
            1.0,
            1.0
          ],
          "specularGlossinessTexture": {
            "index": 0
          }
        }
      },
      "name": "Bone__Female_Coccyx",
      "occlusionTexture": {
        "index": 4
      }
    },
    {
      "doubleSided": true,
      "extensions": {
        "KHR_materials_pbrSpecularGlossiness": {
          "diffuseFactor": [
            1.0,
            1.0,
            1.0,
            1.0
          ],
          "diffuseTexture": {
            "index": 5
          },
          "glossinessFactor": 0.1841152436021378,
          "specularFactor": [
            1.0,
            1.0,
            1.0
          ],
          "specularGlossinessTexture": {
            "index": 5
          }
        }
      },
      "name": "Bone__Female_Pelvis",
      "occlusionTexture": {
        "index": 6
      }
    },
    {
      "doubleSided": true,
      "extensions": {
        "KHR_materials_pbrSpecularGlossiness": {
          "diffuseFactor": [
            1.0,
            1.0,
            1.0,
            1.0
          ],
          "diffuseTexture": {
            "index": 7
          },
          "glossinessFactor": 0.2703747399443964,
          "specularFactor": [
            1.0,
            1.0,
            1.0
          ],
          "specularGlossinessTexture": {
            "index": 8
          }
        }
      },
      "name": "Bone__Female_Sacrum",
      "occlusionTexture": {
        "index": 9
      }
    },
    {
      "doubleSided": true,
      "emissiveTexture": {
        "index": 10
      },
      "extensions": {
        "KHR_materials_pbrSpecularGlossiness": {
          "diffuseFactor": [
            1.0,
            1.0,
            1.0,
            1.0
          ],
          "diffuseTexture": {
            "index": 10
          },
          "glossinessFactor": 0.8590144647319556,
          "specularFactor": [
            0.24491697523545472,
            0.24491697523545472,
            0.24491697523545472
          ],
          "specularGlossinessTexture": {
            "index": 10
          }
        }
      },
      "name": "Cartilage"
    },
    {
      "doubleSided": true,
      "extensions": {
        "KHR_materials_pbrSpecularGlossiness": {
          "diffuseFactor": [
            1.0,
            1.0,
            1.0,
            1.0
          ],
          "diffuseTexture": {
            "index": 11
          },
          "glossinessFactor": 0.5124445944220491,
          "specularFactor": [
            0.3361195726854301,
            0.3361195726854301,
            0.3361195726854301
          ]
        }
      },
      "name": "Fallopian_Tube_Whole",
      "occlusionTexture": {
        "index": 12
      }
    },
    {
      "doubleSided": true,
      "extensions": {
        "KHR_materials_pbrSpecularGlossiness": {
          "diffuseFactor": [
            1.0,
            1.0,
            1.0,
            1.0
          ],
          "diffuseTexture": {
            "index": 13
          },
          "glossinessFactor": 0.2766931714,
          "specularFactor": [
            0.0,
            0.0,
            0.0
          ]
        }
      },
      "name": "Ovarian_Ligament"
    },
    {
      "doubleSided": true,
      "extensions": {
        "KHR_materials_pbrSpecularGlossiness": {
          "diffuseFactor": [
            1.0,
            1.0,
            1.0,
            1.0
          ],
          "diffuseTexture": {
            "index": 14
          },
          "glossinessFactor": 0.6948497893219999,
          "specularFactor": [
            0.5671661528920344,
            0.38291629530830373,
            0.38291629530830373
          ]
        }
      },
      "name": "Ovary2",
      "occlusionTexture": {
        "index": 15
      }
    },
    {
      "alphaMode": "BLEND",
      "doubleSided": true,
      "extensions": {
        "KHR_materials_pbrSpecularGlossiness": {
          "diffuseFactor": [
            0.5904156236851367,
            0.5845698132066669,
            0.5845698132066669,
            0.1658747241121427
          ],
          "diffuseTexture": {
            "index": 16
          },
          "glossinessFactor": 0.2703747399,
          "specularFactor": [
            0.0,
            0.0,
            0.0
          ]
        }
      },
      "name": "Transparent_Skin",
      "occlusionTexture": {
        "index": 17
      }
    },
    {
      "doubleSided": true,
      "extensions": {
        "KHR_materials_pbrSpecularGlossiness": {
          "diffuseFactor": [
            1.0,
            1.0,
            1.0,
            1.0
          ],
          "diffuseTexture": {
            "index": 18
          },
          "glossinessFactor": 0.6583687503420098,
          "specularFactor": [
            1.0,
            1.0,
            1.0
          ],
          "specularGlossinessTexture": {
            "index": 18
          }
        }
      },
      "name": "Uterus_Whole",
      "occlusionTexture": {
        "index": 19
      }
    },
    {
      "doubleSided": true,
      "emissiveTexture": {
        "index": 20
      },
      "extensions": {
        "KHR_materials_pbrSpecularGlossiness": {
          "diffuseFactor": [
            1.0,
            1.0,
            1.0,
            1.0
          ],
          "diffuseTexture": {
            "index": 20
          },
          "glossinessFactor": 1.0,
          "specularFactor": [
            1.0,
            1.0,
            1.0
          ],
          "specularGlossinessTexture": {
            "index": 20
          }
        }
      },
      "name": "adrenal_gland_NEW_2",
      "occlusionTexture": {
        "index": 21
      }
    },
    {
      "doubleSided": true,
      "extensions": {
        "KHR_materials_pbrSpecularGlossiness": {
          "diffuseFactor": [
            1.0,
            1.0,
            1.0,
            1.0
          ],
          "diffuseTexture": {
            "index": 22
          },
          "glossinessFactor": 0.7738920404453119,
          "specularFactor": [
            0.00779022186551873,
            0.00779022186551873,
            0.00779022186551873
          ]
        }
      },
      "name": "kidney_new",
      "occlusionTexture": {
        "index": 23
      }
    },
    {
      "doubleSided": true,
      "extensions": {
        "KHR_materials_pbrSpecularGlossiness": {
          "diffuseFactor": [
            1.0,
            1.0,
            1.0,
            1.0
          ],
          "diffuseTexture": {
            "index": 24
          },
          "glossinessFactor": 0.2647970068,
          "specularFactor": [
            0.6948497893219999,
            0.6948497893219999,
            0.6948497893219999
          ],
          "specularGlossinessTexture": {
            "index": 24
          }
        }
      },
      "name": "ureter",
      "occlusionTexture": {
        "index": 25
      }
    }
  ],
  "meshes": [
    {
      "name": "Object_0",
      "primitives": [
        {
          "attributes": {
            "NORMAL": 1,
            "POSITION": 0,
            "TEXCOORD_0": 2
          },
          "indices": 3,
          "material": 9,
          "mode": 4
        }
      ]
    },
    {
      "name": "Object_1",
      "primitives": [
        {
          "attributes": {
            "NORMAL": 5,
            "POSITION": 4,
            "TEXCOORD_0": 6
          },
          "indices": 7,
          "material": 10,
          "mode": 4
        }
      ]
    },
    {
      "name": "Object_2",
      "primitives": [
        {
          "attributes": {
            "NORMAL": 9,
            "POSITION": 8,
            "TEXCOORD_0": 10
          },
          "indices": 11,
          "material": 0,
          "mode": 4
        }
      ]
    },
    {
      "name": "Object_3",
      "primitives": [
        {
          "attributes": {
            "NORMAL": 13,
            "POSITION": 12,
            "TEXCOORD_0": 14
          },
          "indices": 15,
          "material": 0,
          "mode": 4
        }
      ]
    },
    {
      "name": "Object_4",
      "primitives": [
        {
          "attributes": {
            "NORMAL": 17,
            "POSITION": 16,
            "TEXCOORD_0": 18
          },
          "indices": 19,
          "material": 0,
          "mode": 4
        }
      ]
    },
    {
      "name": "Object_5",
      "primitives": [
        {
          "attributes": {
            "NORMAL": 21,
            "POSITION": 20,
            "TEXCOORD_0": 22
          },
          "indices": 23,
          "material": 0,
          "mode": 4
        }
      ]
    },
    {
      "name": "Object_6",
      "primitives": [
        {
          "attributes": {
            "NORMAL": 25,
            "POSITION": 24,
            "TEXCOORD_0": 26
          },
          "indices": 27,
          "material": 0,
          "mode": 4
        }
      ]
    },
    {
      "name": "Object_7",
      "primitives": [
        {
          "attributes": {
            "NORMAL": 29,
            "POSITION": 28,
            "TEXCOORD_0": 30
          },
          "indices": 31,
          "material": 0,
          "mode": 4
        }
      ]
    },
    {
      "name": "Object_8",
      "primitives": [
        {
          "attributes": {
            "NORMAL": 33,
            "POSITION": 32,
            "TEXCOORD_0": 34
          },
          "indices": 35,
          "material": 0,
          "mode": 4
        }
      ]
    },
    {
      "name": "Object_9",
      "primitives": [
        {
          "attributes": {
            "NORMAL": 37,
            "POSITION": 36,
            "TEXCOORD_0": 38
          },
          "indices": 39,
          "material": 0,
          "mode": 4
        }
      ]
    },
    {
      "name": "Object_10",
      "primitives": [
        {
          "attributes": {
            "NORMAL": 41,
            "POSITION": 40,
            "TEXCOORD_0": 42
          },
          "indices": 43,
          "material": 0,
          "mode": 4
        }
      ]
    },
    {
      "name": "Object_11",
      "primitives": [
        {
          "attributes": {
            "NORMAL": 45,
            "POSITION": 44,
            "TEXCOORD_0": 46
          },
          "indices": 47,
          "material": 0,
          "mode": 4
        }
      ]
    },
    {
      "name": "Object_12",
      "primitives": [
        {
          "attributes": {
            "NORMAL": 49,
            "POSITION": 48,
            "TEXCOORD_0": 50
          },
          "indices": 51,
          "material": 0,
          "mode": 4
        }
      ]
    },
    {
      "name": "Object_13",
      "primitives": [
        {
          "attributes": {
            "NORMAL": 53,
            "POSITION": 52,
            "TEXCOORD_0": 54
          },
          "indices": 55,
          "material": 0,
          "mode": 4
        }
      ]
    },
    {
      "name": "Object_14",
      "primitives": [
        {
          "attributes": {
            "NORMAL": 57,
            "POSITION": 56,
            "TEXCOORD_0": 58
          },
          "indices": 59,
          "material": 1,
          "mode": 4
        }
      ]
    },
    {
      "name": "Object_15",
      "primitives": [
        {
          "attributes": {
            "NORMAL": 61,
            "POSITION": 60,
            "TEXCOORD_0": 62
          },
          "indices": 63,
          "material": 2,
          "mode": 4
        }
      ]
    },
    {
      "name": "Object_16",
      "primitives": [
        {
          "attributes": {
            "NORMAL": 65,
            "POSITION": 64,
            "TEXCOORD_0": 66
          },
          "indices": 67,
          "material": 3,
          "mode": 4
        }
      ]
    },
    {
      "name": "Object_17",
      "primitives": [
        {
          "attributes": {
            "NORMAL": 69,
            "POSITION": 68,
            "TEXCOORD_0": 70
          },
          "indices": 71,
          "material": 3,
          "mode": 4
        }
      ]
    },
    {
      "name": "Object_18",
      "primitives": [
        {
          "attributes": {
            "NORMAL": 73,
            "POSITION": 72,
            "TEXCOORD_0": 74
          },
          "indices": 75,
          "material": 4,
          "mode": 4
        }
      ]
    },
    {
      "name": "Object_19",
      "primitives": [
        {
          "attributes": {
            "NORMAL": 77,
            "POSITION": 76,
            "TEXCOORD_0": 78
          },
          "indices": 79,
          "material": 4,
          "mode": 4
        }
      ]
    },
    {
      "name": "Object_20",
      "primitives": [
        {
          "attributes": {
            "NORMAL": 81,
            "POSITION": 80,
            "TEXCOORD_0": 82
          },
          "indices": 83,
          "material": 4,
          "mode": 4
        }
      ]
    },
    {
      "name": "Object_21",
      "primitives": [
        {
          "attributes": {
            "NORMAL": 85,
            "POSITION": 84,
            "TEXCOORD_0": 86
          },
          "indices": 87,
          "material": 5,
          "mode": 4
        }
      ]
    },
    {
      "name": "Object_22",
      "primitives": [
        {
          "attributes": {
            "NORMAL": 89,
            "POSITION": 88,
            "TEXCOORD_0": 90
          },
          "indices": 91,
          "material": 5,
          "mode": 4
        }
      ]
    },
    {
      "name": "Object_23",
      "primitives": [
        {
          "attributes": {
            "NORMAL": 93,
            "POSITION": 92,
            "TEXCOORD_0": 94
          },
          "indices": 95,
          "material": 5,
          "mode": 4
        }
      ]
    },
    {
      "name": "Object_24",
      "primitives": [
        {
          "attributes": {
            "NORMAL": 97,
            "POSITION": 96,
            "TEXCOORD_0": 98
          },
          "indices": 99,
          "material": 5,
          "mode": 4
        }
      ]
    },
    {
      "name": "Object_25",
      "primitives": [
        {
          "attributes": {
            "NORMAL": 101,
            "POSITION": 100,
            "TEXCOORD_0": 102
          },
          "indices": 103,
          "material": 5,
          "mode": 4
        }
      ]
    },
    {
      "name": "Object_26",
      "primitives": [
        {
          "attributes": {
            "NORMAL": 105,
            "POSITION": 104,
            "TEXCOORD_0": 106
          },
          "indices": 107,
          "material": 6,
          "mode": 4
        }
      ]
    },
    {
      "name": "Object_27",
      "primitives": [
        {
          "attributes": {
            "NORMAL": 109,
            "POSITION": 108,
            "TEXCOORD_0": 110
          },
          "indices": 111,
          "material": 6,
          "mode": 4
        }
      ]
    },
    {
      "name": "Object_28",
      "primitives": [
        {
          "attributes": {
            "NORMAL": 113,
            "POSITION": 112,
            "TEXCOORD_0": 114
          },
          "indices": 115,
          "material": 7,
          "mode": 4
        }
      ]
    },
    {
      "name": "Object_29",
      "primitives": [
        {
          "attributes": {
            "NORMAL": 117,
            "POSITION": 116,
            "TEXCOORD_0": 118
          },
          "indices": 119,
          "material": 8,
          "mode": 4
        }
      ]
    },
    {
      "name": "Object_30",
      "primitives": [
        {
          "attributes": {
            "NORMAL": 121,
            "POSITION": 120,
            "TEXCOORD_0": 122
          },
          "indices": 123,
          "material": 11,
          "mode": 4
        }
      ]
    },
    {
      "name": "Object_31",
      "primitives": [
        {
          "attributes": {
            "NORMAL": 125,
            "POSITION": 124,
            "TEXCOORD_0": 126
          },
          "indices": 127,
          "material": 11,
          "mode": 4
        }
      ]
    },
    {
      "name": "Object_32",
      "primitives": [
        {
          "attributes": {
            "NORMAL": 129,
            "POSITION": 128,
            "TEXCOORD_0": 130
          },
          "indices": 131,
          "material": 12,
          "mode": 4
        }
      ]
    },
    {
      "name": "Object_33",
      "primitives": [
        {
          "attributes": {
            "NORMAL": 133,
            "POSITION": 132,
            "TEXCOORD_0": 134
          },
          "indices": 135,
          "material": 13,
          "mode": 4
        }
      ]
    }
  ],
  "nodes": [
    {
      "children": [
        1
      ],
      "matrix": [
        1.0,
        0.0,
        0.0,
        0.0,
        0.0,
        2.220446049250313e-16,
        -1.0,
        0.0,
        0.0,
        1.0,
        2.220446049250313e-16,
        0.0,
        0.0,
        0.0,
        0.0,
        1.0
      ],
      "name": "Sketchfab_model"
    },
    {
      "children": [
        2,
        3,
        4,
        5,
        6,
        7,
        8,
        9,
        10,
        11,
        12,
        13,
        14,
        15,
        16,
        17,
        18,
        19,
        20,
        21,
        22,
        23,
        24,
        25,
        26,
        27,
        28,
        29,
        30,
        31,
        32,
        33,
        34,
        35
      ],
      "name": "Female Repro & Urinary Systems.obj.cleaner.materialmerger.gles"
    },
    {
      "mesh": 0,
      "name": "Object_2"
    },
    {
      "mesh": 1,
      "name": "Object_3"
    },
    {
      "mesh": 2,
      "name": "Object_4"
    },
    {
      "mesh": 3,
      "name": "Object_5"
    },
    {
      "mesh": 4,
      "name": "Object_6"
    },
    {
      "mesh": 5,
      "name": "Object_7"
    },
    {
      "mesh": 6,
      "name": "Object_8"
    },
    {
      "mesh": 7,
      "name": "Object_9"
    },
    {
      "mesh": 8,
      "name": "Object_10"
    },
    {
      "mesh": 9,
      "name": "Object_11"
    },
    {
      "mesh": 10,
      "name": "Object_12"
    },
    {
      "mesh": 11,
      "name": "Object_13"
    },
    {
      "mesh": 12,
      "name": "Object_14"
    },
    {
      "mesh": 13,
      "name": "Object_15"
    },
    {
      "mesh": 14,
      "name": "Object_16"
    },
    {
      "mesh": 15,
      "name": "Object_17"
    },
    {
      "mesh": 16,
      "name": "Object_18"
    },
    {
      "mesh": 17,
      "name": "Object_19"
    },
    {
      "mesh": 18,
      "name": "Object_20"
    },
    {
      "mesh": 19,
      "name": "Object_21"
    },
    {
      "mesh": 20,
      "name": "Object_22"
    },
    {
      "mesh": 21,
      "name": "Object_23"
    },
    {
      "mesh": 22,
      "name": "Object_24"
    },
    {
      "mesh": 23,
      "name": "Object_25"
    },
    {
      "mesh": 24,
      "name": "Object_26"
    },
    {
      "mesh": 25,
      "name": "Object_27"
    },
    {
      "mesh": 26,
      "name": "Object_28"
    },
    {
      "mesh": 27,
      "name": "Object_29"
    },
    {
      "mesh": 28,
      "name": "Object_30"
    },
    {
      "mesh": 29,
      "name": "Object_31"
    },
    {
      "mesh": 30,
      "name": "Object_32"
    },
    {
      "mesh": 31,
      "name": "Object_33"
    },
    {
      "mesh": 32,
      "name": "Object_34"
    },
    {
      "mesh": 33,
      "name": "Object_35"
    }
  ],
  "samplers": [
    {
      "magFilter": 9729,
      "minFilter": 9987,
      "wrapS": 10497,
      "wrapT": 10497
    }
  ],
  "scene": 0,
  "scenes": [
    {
      "name": "Sketchfab_Scene",
      "nodes": [
        0
      ]
    }
  ],
  "textures": [
    {
      "sampler": 0,
      "source": 0
    },
    {
      "sampler": 0,
      "source": 1
    },
    {
      "sampler": 0,
      "source": 2
    },
    {
      "sampler": 0,
      "source": 3
    },
    {
      "sampler": 0,
      "source": 4
    },
    {
      "sampler": 0,
      "source": 5
    },
    {
      "sampler": 0,
      "source": 6
    },
    {
      "sampler": 0,
      "source": 7
    },
    {
      "sampler": 0,
      "source": 8
    },
    {
      "sampler": 0,
      "source": 9
    },
    {
      "sampler": 0,
      "source": 10
    },
    {
      "sampler": 0,
      "source": 11
    },
    {
      "sampler": 0,
      "source": 12
    },
    {
      "sampler": 0,
      "source": 13
    },
    {
      "sampler": 0,
      "source": 14
    },
    {
      "sampler": 0,
      "source": 15
    },
    {
      "sampler": 0,
      "source": 16
    },
    {
      "sampler": 0,
      "source": 17
    },
    {
      "sampler": 0,
      "source": 18
    },
    {
      "sampler": 0,
      "source": 19
    },
    {
      "sampler": 0,
      "source": 20
    },
    {
      "sampler": 0,
      "source": 21
    },
    {
      "sampler": 0,
      "source": 22
    },
    {
      "sampler": 0,
      "source": 23
    },
    {
      "sampler": 0,
      "source": 24
    },
    {
      "sampler": 0,
      "source": 25
    }
  ]
}
