{
  "accessors": [
    {
      "bufferView": 2,
      "componentType": 5126,
      "count": 65532,
      "max": [
        82.70064544677734,
        -366.0184631347656,
        62.64695739746094
      ],
      "min": [
        -64.41481018066406,
        -448.3616943359375,
        -50.57248306274414
      ],
      "type": "VEC3"
    },
    {
      "bufferView": 2,
      "byteOffset": 786384,
      "componentType": 5126,
      "count": 65532,
      "max": [
        0.9999450445175171,
        0.9999493956565857,
        0.9999319314956665
      ],
      "min": [
        -0.9998999834060669,
        -0.9999740719795227,
        -0.9998075366020203
      ],
      "type": "VEC3"
    },
    {
      "bufferView": 1,
      "componentType": 5126,
      "count": 65532,
      "max": [
        0.9981150031089783,
        0.9937999844551086
      ],
      "min": [
        0.09756000339984894,
        0.02338000014424324
      ],
      "type": "VEC2"
    },
    {
      "bufferView": 0,
      "componentType": 5125,
      "count": 303015,
      "type": "SCALAR"
    },
    {
      "bufferView": 2,
      "byteOffset": 1572768,
      "componentType": 5126,
      "count": 65532,
      "max": [
        85.65912628173828,
        -366.5476379394531,
        60.90573501586914
      ],
      "min": [
        -64.36676788330078,
        -448.4692077636719,
        -50.01805114746094
      ],
      "type": "VEC3"
    },
    {
      "bufferView": 2,
      "byteOffset": 2359152,
      "componentType": 5126,
      "count": 65532,
      "max": [
        0.9997459053993225,
        0.9999201893806458,
        0.9999774694442749
      ],
      "min": [
        -0.9999920129776001,
        -0.9999251961708069,
        -0.9999971985816956
      ],
      "type": "VEC3"
    },
    {
      "bufferView": 1,
      "byteOffset": 524256,
      "componentType": 5126,
      "count": 65532,
      "max": [
        0.9645640254020691,
        0.9645249843597412
      ],
      "min": [
        0.06720300018787384,
        0.03354499861598015
      ],
      "type": "VEC2"
    },
    {
      "bufferView": 0,
      "byteOffset": 1212060,
      "componentType": 5125,
      "count": 301452,
      "type": "SCALAR"
    },
    {
      "bufferView": 2,
      "byteOffset": 3145536,
      "componentType": 5126,
      "count": 65532,
      "max": [
        85.68376159667969,
        -366.4807434082031,
        59.55577850341797
      ],
      "min": [
        -64.4020004272461,
        -448.639892578125,
        -50.491798400878906
      ],
      "type": "VEC3"
    },
    {
      "bufferView": 2,
      "byteOffset": 3931920,
      "componentType": 5126,
      "count": 65532,
      "max": [
        0.9999450445175171,
        0.9999834895133972,
        0.9999532699584961
      ],
      "min": [
        -0.9999656677246094,
        -0.9999817609786987,
        -0.9999387860298157
      ],
      "type": "VEC3"
    },
    {
      "bufferView": 1,
      "byteOffset": 1048512,
      "componentType": 5126,
      "count": 65532,
      "max": [
        0.9947929978370667,
        0.9504510164260864
      ],
      "min": [
        0.0012359999818727374,
        0.022420000284910202
      ],
      "type": "VEC2"
    },
    {
      "bufferView": 0,
      "byteOffset": 2417868,
      "componentType": 5125,
      "count": 300849,
      "type": "SCALAR"
    },
    {
      "bufferView": 2,
      "byteOffset": 4718304,
      "componentType": 5126,
      "count": 65532,
      "max": [
        85.68311309814453,
        -367.311767578125,
        61.76174545288086
      ],
      "min": [
        -63.9989128112793,
        -448.51483154296875,
        -49.665428161621094
      ],
      "type": "VEC3"
    },
    {
      "bufferView": 2,
      "byteOffset": 5504688,
      "componentType": 5126,
      "count": 65532,
      "max": [
        0.999989926815033,
        0.9999701380729675,
        0.9998323321342468
      ],
      "min": [
        -0.999924898147583,
        -0.9999985098838806,
        -0.9999198913574219
      ],
      "type": "VEC3"
    },
    {
      "bufferView": 1,
      "byteOffset": 1572768,
      "componentType": 5126,
      "count": 65532,
      "max": [
        0.9898859858512878,
        0.9867140054702759
      ],
      "min": [
        0.005915999878197908,
        0.0015160000184550881
      ],
      "type": "VEC2"
    },
    {
      "bufferView": 0,
      "byteOffset": 3621264,
      "componentType": 5125,
      "count": 297153,
      "type": "SCALAR"
    },
    {
      "bufferView": 2,
      "byteOffset": 6291072,
      "componentType": 5126,
      "count": 65532,
      "max": [
        85.7098388671875,
        -365.97113037109375,
        61.668312072753906
      ],
      "min": [
        -64.3021240234375,
        -448.63134765625,
        -50.5350456237793
      ],
      "type": "VEC3"
    },
    {
      "bufferView": 2,
      "byteOffset": 7077456,
      "componentType": 5126,
      "count": 65532,
      "max": [
        0.9999886155128479,
        0.9999610781669617,
        0.999998152256012
      ],
      "min": [
        -0.9999566078186035,
        -0.999997079372406,
        -0.9999516606330872
      ],
      "type": "VEC3"
    },
    {
      "bufferView": 1,
      "byteOffset": 2097024,
      "componentType": 5126,
      "count": 65532,
      "max": [
        0.9940609931945801,
        0.9830660223960876
      ],
      "min": [
        0.002894999925047159,
        0.004935000091791153
      ],
      "type": "VEC2"
    },
    {
      "bufferView": 0,
      "byteOffset": 4809876,
      "componentType": 5125,
      "count": 267360,
      "type": "SCALAR"
    },
    {
      "bufferView": 2,
      "byteOffset": 7863840,
      "componentType": 5126,
      "count": 65532,
      "max": [
        85.61336517333984,
        -366.359375,
        61.760093688964844
      ],
      "min": [
        -63.907142639160156,
        -447.4961242675781,
        -50.57248306274414
      ],
      "type": "VEC3"
    },
    {
      "bufferView": 2,
      "byteOffset": 8650224,
      "componentType": 5126,
      "count": 65532,
      "max": [
        0.9999967217445374,
        0.9999976754188538,
        0.9999900460243225
      ],
      "min": [
        -0.9999566078186035,
        -0.9999641180038452,
        -0.9999391436576843
      ],
      "type": "VEC3"
    },
    {
      "bufferView": 1,
      "byteOffset": 2621280,
      "componentType": 5126,
      "count": 65532,
      "max": [
        0.9945369958877563,
        0.9923459887504578
      ],
      "min": [
        0.006645000074058771,
        0.014535999856889248
      ],
      "type": "VEC2"
    },
    {
      "bufferView": 0,
      "byteOffset": 5879316,
      "componentType": 5125,
      "count": 274059,
      "type": "SCALAR"
    },
    {
      "bufferView": 2,
      "byteOffset": 9436608,
      "componentType": 5126,
      "count": 65532,
      "max": [
        84.81941223144531,
        -366.4527282714844,
        61.35770797729492
      ],
      "min": [
        -64.23399353027344,
        -447.929443359375,
        -50.497337341308594
      ],
      "type": "VEC3"
    },
    {
      "bufferView": 2,
      "byteOffset": 10222992,
      "componentType": 5126,
      "count": 65532,
      "max": [
        0.9999802112579346,
        0.9999840259552002,
        0.9999940395355225
      ],
      "min": [
        -0.9999998211860657,
        -0.9999591112136841,
        -0.9999848008155823
      ],
      "type": "VEC3"
    },
    {
      "bufferView": 1,
      "byteOffset": 3145536,
      "componentType": 5126,
      "count": 65532,
      "max": [
        0.9961349964141846,
        0.9946939945220947
      ],
      "min": [
        0.008601999841630459,
        0.01042100042104721
      ],
      "type": "VEC2"
    },
    {
      "bufferView": 0,
      "byteOffset": 6975552,
      "componentType": 5125,
      "count": 269304,
      "type": "SCALAR"
    },
    {
      "bufferView": 2,
      "byteOffset": 11009376,
      "componentType": 5126,
      "count": 65532,
      "max": [
        84.56116485595703,
        -367.3106689453125,
        62.86833953857422
      ],
      "min": [
        -64.3099136352539,
        -448.4881896972656,
        -50.528072357177734
      ],
      "type": "VEC3"
    },
    {
      "bufferView": 2,
      "byteOffset": 11795760,
      "componentType": 5126,
      "count": 65532,
      "max": [
        0.9997736811637878,
        0.9999943375587463,
        0.999994158744812
      ],
      "min": [
        -0.9999626278877258,
        -0.9999985098838806,
        -0.9999038577079773
      ],
      "type": "VEC3"
    },
    {
      "bufferView": 1,
      "byteOffset": 3669792,
      "componentType": 5126,
      "count": 65532,
      "max": [
        0.9987639784812927,
        0.9978799819946289
      ],
      "min": [
        0.0065819998271763325,
        0.015745999291539192
      ],
      "type": "VEC2"
    },
    {
      "bufferView": 0,
      "byteOffset": 8052768,
      "componentType": 5125,
      "count": 269868,
      "type": "SCALAR"
    },
    {
      "bufferView": 2,
      "byteOffset": 12582144,
      "componentType": 5126,
      "count": 65532,
      "max": [
        83.96334075927734,
        -366.5711975097656,
        62.49209213256836
      ],
      "min": [
        -63.96820831298828,
        -447.8469543457031,
        -50.432640075683594
      ],
      "type": "VEC3"
    },
    {
      "bufferView": 2,
      "byteOffset": 13368528,
      "componentType": 5126,
      "count": 65532,
      "max": [
        0.9997869729995728,
        0.9999943375587463,
        0.9998358488082886
      ],
      "min": [
        -0.9999998211860657,
        -0.9999817609786987,
        -0.9999101161956787
      ],
      "type": "VEC3"
    },
    {
      "bufferView": 1,
      "byteOffset": 4194048,
      "componentType": 5126,
      "count": 65532,
      "max": [
        0.9986259937286377,
        0.9979739785194397
      ],
      "min": [
        0.01526699960231781,
        0.017107000574469566
      ],
      "type": "VEC2"
    },
    {
      "bufferView": 0,
      "byteOffset": 9132240,
      "componentType": 5125,
      "count": 270171,
      "type": "SCALAR"
    },
    {
      "bufferView": 2,
      "byteOffset": 14154912,
      "componentType": 5126,
      "count": 65532,
      "max": [
        82.24390411376953,
        -366.34716796875,
        62.753875732421875
      ],
      "min": [
        -63.448936462402344,
        -448.3817138671875,
        -50.256229400634766
      ],
      "type": "VEC3"
    },
    {
      "bufferView": 2,
      "byteOffset": 14941296,
      "componentType": 5126,
      "count": 65532,
      "max": [
        0.9996805787086487,
        0.9999976754188538,
        0.9999494552612305
      ],
      "min": [
        -0.9999843835830688,
        -0.9999722242355347,
        -0.9999896287918091
      ],
      "type": "VEC3"
    },
    {
      "bufferView": 1,
      "byteOffset": 4718304,
      "componentType": 5126,
      "count": 65532,
      "max": [
        0.9181320071220398,
        0.9899610280990601
      ],
      "min": [
        0.0034280000254511833,
        0.020225999876856804
      ],
      "type": "VEC2"
    },
    {
      "bufferView": 0,
      "byteOffset": 10212924,
      "componentType": 5125,
      "count": 307677,
      "type": "SCALAR"
    },
    {
      "bufferView": 2,
      "byteOffset": 15727680,
      "componentType": 5126,
      "count": 65534,
      "max": [
        81.39825439453125,
        -365.97113037109375,
        62.82997512817383
      ],
      "min": [
        -64.40223693847656,
        -448.627197265625,
        -49.66460418701172
      ],
      "type": "VEC3"
    },
    {
      "bufferView": 2,
      "byteOffset": 16514088,
      "componentType": 5126,
      "count": 65534,
      "max": [
        0.9998061656951904,
        0.9999954104423523,
        0.9999509453773499
      ],
      "min": [
        -0.9998459219932556,
        -0.9999198317527771,
        -0.9999896287918091
      ],
      "type": "VEC3"
    },
    {
      "bufferView": 1,
      "byteOffset": 5242560,
      "componentType": 5126,
      "count": 65534,
      "max": [
        0.9194819927215576,
        0.9984840154647827
      ],
      "min": [
        0.006345999892801046,
        0.002982999896630645
      ],
      "type": "VEC2"
    },
    {
      "bufferView": 0,
      "byteOffset": 11443632,
      "componentType": 5125,
      "count": 225060,
      "type": "SCALAR"
    },
    {
      "bufferView": 2,
      "byteOffset": 17300496,
      "componentType": 5126,
      "count": 24126,
      "max": [
        83.10406494140625,
        -367.61846923828125,
        61.26591110229492
      ],
      "min": [
        -64.15642547607422,
        -448.0755310058594,
        -50.09361267089844
      ],
      "type": "VEC3"
    },
    {
      "bufferView": 2,
      "byteOffset": 17590008,
      "componentType": 5126,
      "count": 24126,
      "max": [
        0.9984655380249023,
        0.9999610781669617,
        0.9990985989570618
      ],
      "min": [
        -0.9999041557312012,
        -0.999957799911499,
        -0.9999971985816956
      ],
      "type": "VEC3"
    },
    {
      "bufferView": 1,
      "byteOffset": 5766832,
      "componentType": 5126,
      "count": 24126,
      "max": [
        0.9387689828872681,
        0.976531982421875
      ],
      "min": [
        0.022494999691843987,
        0.016912000253796577
      ],
      "type": "VEC2"
    },
    {
      "bufferView": 0,
      "byteOffset": 12343872,
      "componentType": 5125,
      "count": 64074,
      "type": "SCALAR"
    }
  ],
  "asset": {
    "extras": {
      "author": "Dr. Alex Cheroske (https://sketchfab.com/aquaman27)",
      "license": "CC-BY-NC-4.0 (http://creativecommons.org/licenses/by-nc/4.0/)",
      "source": "https://sketchfab.com/3d-models/brain-model-right-general-anatomy-dfc9e4a0796b40c7893dd0dad8b25543",
      "title": "Brain Model (Right) - General anatomy"
    },
    "generator": "Sketchfab-12.64.0",
    "version": "2.0"
  },
  "bufferViews": [
    {
      "buffer": 0,
      "byteLength": 12600168,
      "name": "floatBufferViews",
      "target": 34963
    },
    {
      "buffer": 0,
      "byteLength": 5959840,
      "byteOffset": 12600168,
      "byteStride": 8,
      "name": "floatBufferViews",
      "target": 34962
    },
    {
      "buffer": 0,
      "byteLength": 17879520,
      "byteOffset": 18560008,
      "byteStride": 12,
      "name": "floatBufferViews",
      "target": 34962
    }
  ],
  "buffers": [
    {
      "byteLength": 36439528,
      "uri": "scene.bin"
    }
  ],
  "extensionsRequired": [
    "KHR_materials_pbrSpecularGlossiness"
  ],
  "extensionsUsed": [
    "KHR_materials_pbrSpecularGlossiness"
  ],
  "images": [
    {
      "uri": "textures/texture_diffuse.jpeg"
    }
  ],
  "materials": [
    {
      "doubleSided": true,
      "extensions": {
        "KHR_materials_pbrSpecularGlossiness": {
          "diffuseFactor": [
            0.8392408536305636,
            0.8392408536305636,
            0.8392408536305636,
            1.0
          ],
          "diffuseTexture": {
            "index": 0
          },
          "glossinessFactor": 0.0,
          "specularFactor": [
            0.0,
            0.0,
            0.0
          ]
        }
      },
      "name": "texture"
    }
  ],
  "meshes": [
    {
      "name": "Object_0",
      "primitives": [
        {
          "attributes": {
            "NORMAL": 1,
            "POSITION": 0,
            "TEXCOORD_0": 2
          },
          "indices": 3,
          "material": 0,
          "mode": 4
        }
      ]
    },
    {
      "name": "Object_1",
      "primitives": [
        {
          "attributes": {
            "NORMAL": 5,
            "POSITION": 4,
            "TEXCOORD_0": 6
          },
          "indices": 7,
          "material": 0,
          "mode": 4
        }
      ]
    },
    {
      "name": "Object_2",
      "primitives": [
        {
          "attributes": {
            "NORMAL": 9,
            "POSITION": 8,
            "TEXCOORD_0": 10
          },
          "indices": 11,
          "material": 0,
          "mode": 4
        }
      ]
    },
    {
      "name": "Object_3",
      "primitives": [
        {
          "attributes": {
            "NORMAL": 13,
            "POSITION": 12,
            "TEXCOORD_0": 14
          },
          "indices": 15,
          "material": 0,
          "mode": 4
        }
      ]
    },
    {
      "name": "Object_4",
      "primitives": [
        {
          "attributes": {
            "NORMAL": 17,
            "POSITION": 16,
            "TEXCOORD_0": 18
          },
          "indices": 19,
          "material": 0,
          "mode": 4
        }
      ]
    },
    {
      "name": "Object_5",
      "primitives": [
        {
          "attributes": {
            "NORMAL": 21,
            "POSITION": 20,
            "TEXCOORD_0": 22
          },
          "indices": 23,
          "material": 0,
          "mode": 4
        }
      ]
    },
    {
      "name": "Object_6",
      "primitives": [
        {
          "attributes": {
            "NORMAL": 25,
            "POSITION": 24,
            "TEXCOORD_0": 26
          },
          "indices": 27,
          "material": 0,
          "mode": 4
        }
      ]
    },
    {
      "name": "Object_7",
      "primitives": [
        {
          "attributes": {
            "NORMAL": 29,
            "POSITION": 28,
            "TEXCOORD_0": 30
          },
          "indices": 31,
          "material": 0,
          "mode": 4
        }
      ]
    },
    {
      "name": "Object_8",
      "primitives": [
        {
          "attributes": {
            "NORMAL": 33,
            "POSITION": 32,
            "TEXCOORD_0": 34
          },
          "indices": 35,
          "material": 0,
          "mode": 4
        }
      ]
    },
    {
      "name": "Object_9",
      "primitives": [
        {
          "attributes": {
            "NORMAL": 37,
            "POSITION": 36,
            "TEXCOORD_0": 38
          },
          "indices": 39,
          "material": 0,
          "mode": 4
        }
      ]
    },
    {
      "name": "Object_10",
      "primitives": [
        {
          "attributes": {
            "NORMAL": 41,
            "POSITION": 40,
            "TEXCOORD_0": 42
          },
          "indices": 43,
          "material": 0,
          "mode": 4
        }
      ]
    },
    {
      "name": "Object_11",
      "primitives": [
        {
          "attributes": {
            "NORMAL": 45,
            "POSITION": 44,
            "TEXCOORD_0": 46
          },
          "indices": 47,
          "material": 0,
          "mode": 4
        }
      ]
    }
  ],
  "nodes": [
    {
      "children": [
        1
      ],
      "matrix": [
        -0.2908322513103485,
        -0.5194990038871767,
        0.8034533858299254,
        0.0,
        -0.9567671418190002,
        0.1547136306762696,
        -0.2462932616472244,
        0.0,
        0.0036439131945371628,
        -0.8403478264808654,
        -0.5420352816581728,
        0.0,
        -375.9749755859375,
        79.8611984252929,
        301.7666015625,
        1.0
      ],
      "name": "Sketchfab_model"
    },
    {
      "children": [
        2,
        3,
        4,
        5,
        6,
        7,
        8,
        9,
        10,
        11,
        12,
        13
      ],
      "name": "brain_right.obj.cleaner.materialmerger.gles"
    },
    {
      "mesh": 0,
      "name": "Object_2"
    },
    {
      "mesh": 1,
      "name": "Object_3"
    },
    {
      "mesh": 2,
      "name": "Object_4"
    },
    {
      "mesh": 3,
      "name": "Object_5"
    },
    {
      "mesh": 4,
      "name": "Object_6"
    },
    {
      "mesh": 5,
      "name": "Object_7"
    },
    {
      "mesh": 6,
      "name": "Object_8"
    },
    {
      "mesh": 7,
      "name": "Object_9"
    },
    {
      "mesh": 8,
      "name": "Object_10"
    },
    {
      "mesh": 9,
      "name": "Object_11"
    },
    {
      "mesh": 10,
      "name": "Object_12"
    },
    {
      "mesh": 11,
      "name": "Object_13"
    }
  ],
  "samplers": [
    {
      "magFilter": 9729,
      "minFilter": 9987,
      "wrapS": 10497,
      "wrapT": 10497
    }
  ],
  "scene": 0,
  "scenes": [
    {
      "name": "Sketchfab_Scene",
      "nodes": [
        0
      ]
    }
  ],
  "textures": [
    {
      "sampler": 0,
      "source": 0
    }
  ]
}
